# This file uses meters as units for non-parametric coordinates.

mtllib Platform2.mtl
g Platform2_top_lo:default1
v -0.203667 183.349609 -5.257759
v 4.655473 183.328674 -2.452612
v 6.700181 183.431183 -6.733850
v 2.482400 183.325684 -9.168825
v -6.701481 183.351288 6.735119
v -2.484801 183.390335 9.186436
v 0.203708 183.318390 5.257546
v -4.655385 183.329407 2.452313
v 8.124475 183.125641 -9.213938
v 3.916597 183.112839 -11.636479
v 4.400763 181.936310 -13.237722
v 9.264815 181.944260 -10.430818
v 11.038385 183.208725 1.683216
v 11.453693 183.178131 -3.413910
v 13.683225 182.026337 -2.812946
v 13.667500 181.957016 2.809272
v -2.763077 183.072571 -11.585804
v -6.991707 183.216003 -8.724039
v -4.400690 181.920197 -13.237337
v -11.031035 183.246872 -1.683512
v -11.432247 183.170776 3.404855
v -8.142080 183.121185 9.226477
v -3.922111 183.117493 11.654355
v 2.765309 183.153198 11.592110
v 6.970906 183.198898 8.710634
v 9.265897 181.973145 10.431675
v -9.278442 181.998077 -10.441313
v -13.665751 181.958740 -2.808320
v -13.667461 181.953690 2.806774
v -9.297096 182.001038 10.458875
v -4.413907 181.969269 13.261811
v 4.401483 181.957764 13.237863
vt 0.515354 0.684387
vt 0.612007 0.806539
vt 0.445008 0.897439
vt 0.300102 0.812662
vt 0.669335 0.581731
vt 0.353459 0.440717
vt 0.506789 0.338522
vt 0.744913 0.717753
vt 0.870260 0.432983
vt 0.893672 0.599093
vt 0.797043 0.796340
vt 0.664506 0.884450
vt 0.277689 0.304795
vt 0.152697 0.589199
vt 0.129912 0.423674
vt 0.410355 0.215870
vt 0.225109 0.226026
vt 0.357936 0.137835
vt 0.576946 0.125912
vt 0.721177 0.210265
vt 0.847084 0.842401
vt 0.687514 0.948528
vt 0.963427 0.386567
vt 0.976677 0.577380
vt 0.392848 0.966487
vt 0.222012 0.880700
vt 0.058860 0.635439
vt 0.045758 0.444942
vt 0.175525 0.180424
vt 0.334810 0.074291
vt 0.628917 0.056584
vt 0.799532 0.141921
vn -0.008133 0.999926 -0.009027
vn -0.003029 0.999254 -0.038495
vn -0.046402 0.964622 -0.259523
vn -0.112709 0.988130 -0.104380
vn 0.008485 0.999937 0.007338
vn -0.008184 0.999961 -0.003413
vn 0.009800 0.999933 0.006195
vn 0.022602 0.999603 -0.016846
vn 0.143197 0.988303 0.052460
vn 0.240534 0.967449 -0.078647
vn 0.285661 0.918634 -0.272964
vn 0.080453 0.920456 -0.382475
vn -0.024540 0.999574 0.015793
vn -0.146060 0.988092 -0.048379
vn -0.243014 0.966410 0.083640
vn -0.000660 0.999582 0.028888
vn -0.284702 0.922786 0.259637
vn -0.082938 0.921763 0.378779
vn 0.052179 0.966934 0.249633
vn 0.115231 0.988219 0.100727
vn 0.421256 0.818269 -0.391126
vn 0.119059 0.821467 -0.557690
vn 0.376325 0.915238 0.143942
vn 0.466605 0.879921 -0.089554
vn -0.144832 0.878882 -0.454521
vn -0.309234 0.914979 -0.259206
vn -0.385270 0.911989 -0.140866
vn -0.477597 0.873649 0.092942
vn -0.418146 0.826265 0.377412
vn -0.115926 0.825095 0.552974
vn 0.153346 0.878057 0.453322
vn 0.310833 0.915129 0.256754
s 1
g Platform2_top_lo:LO_top Platform2_top_lo:Platform2_LO_0 LO_top LO_grp
usemtl initialShadingGroup
f 1/1/1 4/2/2 17/3/3 18/4/4
f 2/5/5 1/1/1 8/6/6 7/7/7
f 3/8/8 2/5/5 13/9/9 14/10/10
f 4/2/2 3/8/8 9/11/11 10/12/12
f 5/13/13 8/6/6 20/14/14 21/15/15
f 6/16/16 5/13/13 22/17/17 23/18/18
f 7/7/7 6/16/16 24/19/19 25/20/20
f 10/12/12 9/11/11 12/21/21 11/22/22
f 14/10/10 13/9/9 16/23/23 15/24/24
f 18/4/4 17/3/3 19/25/25 27/26/26
f 21/15/15 20/14/14 28/27/27 29/28/28
f 23/18/18 22/17/17 30/29/29 31/30/30
f 25/20/20 24/19/19 32/31/31 26/32/32
f 12/21/21 9/11/11 14/10/10 15/24/24
f 10/12/12 11/22/22 19/25/25 17/3/3
f 18/4/4 27/26/26 28/27/27 20/14/14
f 21/15/15 29/28/28 30/29/29 22/17/17
f 23/18/18 31/30/30 32/31/31 24/19/19
f 25/20/20 26/32/32 16/23/23 13/9/9
f 24/19/19 6/16/16 23/18/18
f 14/10/10 9/11/11 3/8/8
f 13/9/9 2/5/5 7/7/7 25/20/20
f 4/2/2 10/12/12 17/3/3
f 8/6/6 1/1/1 18/4/4 20/14/14
f 22/17/17 5/13/13 21/15/15
f 1/1/1 2/5/5 3/8/8 4/2/2
f 5/13/13 6/16/16 7/7/7 8/6/6
g Platform2_top_lo:default1
v -9.278442 181.998077 -10.441313
v -13.667461 181.953690 2.806774
v -13.665751 181.958740 -2.808320
v -4.413907 181.969269 13.261811
v -9.297096 182.001038 10.458875
v 4.401483 181.957764 13.237863
g default
v -15.244482 173.169464 -3.643394
v -14.931775 173.094055 2.620832
v -10.708406 173.325790 11.879829
v -4.699867 173.257233 13.985567
v 7.443893 173.262650 13.335525
v -7.642715 173.061264 -12.897593
v -15.592056 164.495087 -3.155525
v -7.933735 164.044861 -13.029796
v -16.496037 164.629517 3.603443
v -10.576530 164.653931 12.402672
v -4.449476 164.534637 14.944840
v 7.284316 164.393066 13.255096
v -15.842693 155.352936 -3.198277
v -7.419053 155.391678 -12.803374
v -15.746405 155.638580 2.927891
v -11.379143 155.383118 12.648475
v -4.787479 155.641373 15.015556
v 7.253530 155.449738 12.962363
v -13.969128 146.646454 -2.746283
v -7.336929 146.681351 -12.719740
v -13.952261 146.785309 2.953204
v -9.640848 146.721573 11.087369
v -4.417655 146.675705 13.773450
v 7.270876 146.776321 13.119686
vt 0.379771 0.668284
vt 0.385742 0.846992
vt 0.268398 0.844003
vt 0.260732 0.667243
vt 0.578202 0.677372
vt 0.568717 0.853335
vt 0.699427 0.686049
vt 0.686309 0.861415
vt 0.940719 0.702718
vt 0.866101 0.874982
vt 0.027086 0.666725
vt 0.089619 0.846312
vt 0.031625 0.486755
vt 0.272464 0.503242
vt 0.396571 0.508145
vt 0.591770 0.515031
vt 0.716072 0.517296
vt 0.947818 0.523828
vt 0.038527 0.314981
vt 0.282298 0.333859
vt 0.393181 0.344031
vt 0.587029 0.345683
vt 0.713356 0.349540
vt 0.950675 0.344539
vt 0.054428 0.143066
vt 0.290921 0.163550
vt 0.407640 0.171120
vt 0.592071 0.176092
vt 0.712722 0.173674
vt 0.947195 0.170782
vn -0.949312 0.139779 0.281547
vn -0.940422 0.166255 0.296590
vn -0.921332 0.130623 -0.366177
vn -0.902775 0.084901 -0.421650
vn -0.726778 0.135080 0.673459
vn -0.736898 0.168855 0.654576
vn -0.098363 0.074047 0.992392
vn -0.129849 0.090210 0.987422
vn 0.070989 0.051011 0.996172
vn 0.032112 0.052185 0.998121
vn -0.794276 0.051458 -0.605374
vn -0.810750 0.104347 -0.576018
vn -0.776220 -0.001906 -0.630460
vn -0.893610 0.013654 -0.448637
vn -0.952441 0.048034 0.300913
vn -0.705113 0.055089 0.706951
vn -0.042557 0.030756 0.998621
vn 0.126917 0.016990 0.991768
vn -0.780348 -0.061964 -0.622268
vn -0.894068 -0.081831 -0.440393
vn -0.954408 -0.108627 0.278040
vn -0.730524 -0.099423 0.675610
vn -0.054007 -0.049489 0.997313
vn 0.134135 -0.037063 0.990270
vn -0.787957 -0.107125 -0.606340
vn -0.893109 -0.145518 -0.425654
vn -0.934890 -0.215193 0.282263
vn -0.724110 -0.217468 0.654501
vn -0.063012 -0.107858 0.992167
vn 0.112924 -0.058521 0.991879
s 1
g LO_grp LO_middle1L
usemtl initialShadingGroup
f 40/33/33 34/34/34 35/35/35 39/36/36
f 41/37/37 37/38/38 34/34/34 40/33/33
f 37/38/38 41/37/37 42/39/39 36/40/40
f 42/39/39 43/41/41 38/42/42 36/40/40
f 44/43/43 39/36/36 35/35/35 33/44/44
f 46/45/45 45/46/46 39/36/36 44/43/43
f 39/36/36 45/46/46 47/47/47 40/33/33
f 47/47/47 48/48/48 41/37/37 40/33/33
f 41/37/37 48/48/48 49/49/49 42/39/39
f 49/49/49 50/50/50 43/41/41 42/39/39
f 52/51/51 51/52/52 45/46/46 46/45/45
f 53/53/53 47/47/47 45/46/46 51/52/52
f 53/53/53 54/54/54 48/48/48 47/47/47
f 55/55/55 49/49/49 48/48/48 54/54/54
f 55/55/55 56/56/56 50/50/50 49/49/49
f 58/57/57 57/58/58 51/52/52 52/51/51
f 51/52/52 57/58/58 59/59/59 53/53/53
f 59/59/59 60/60/60 54/54/54 53/53/53
f 61/61/61 55/55/55 54/54/54 60/60/60
f 61/61/61 62/62/62 56/56/56 55/55/55
