# This file uses meters as units for non-parametric coordinates.

mtllib Platform2.mtl
g Platform2_top_lo:default1
v -0.203667 183.349609 -5.257759
v 4.655473 183.328674 -2.452612
v 6.700181 183.431183 -6.733850
v 2.482400 183.325684 -9.168825
v -6.701480 183.351288 6.735119
v -2.484801 183.390335 9.186436
v 0.203708 183.318390 5.257546
v -4.655385 183.329407 2.452313
v 8.124475 183.125641 -9.213938
v 3.916597 183.112839 -11.636479
v 4.400763 181.936310 -13.237722
v 9.264815 181.944260 -10.430817
v 11.038385 183.208725 1.683216
v 11.453693 183.178131 -3.413910
v 13.683225 182.026337 -2.812946
v 13.667500 181.957016 2.809272
v -2.763077 183.072571 -11.585804
v -6.991707 183.216003 -8.724039
v -4.400690 181.920197 -13.237338
v -11.031035 183.246872 -1.683512
v -11.432247 183.170776 3.404855
v -8.142080 183.121185 9.226477
v -3.922111 183.117493 11.654355
v 2.765309 183.153198 11.592110
v 6.970905 183.198898 8.710634
v 9.265897 181.973145 10.431675
v -9.066628 181.998077 -10.358704
v -13.665752 181.958740 -2.808320
v -13.667461 181.953690 2.806774
v -9.297096 182.001038 10.458875
v -4.413907 181.969269 13.261811
v 4.268320 181.957764 12.817997
g default
v 3.400097 181.958908 12.862378
v 5.681379 181.962112 12.143267
v -8.162208 181.980255 -11.081161
v -9.790283 181.993500 -9.550817
vt 0.507885 0.662503
vt 0.592301 0.769189
vt 0.446445 0.848581
vt 0.319885 0.774537
vt 0.642371 0.572843
vt 0.366487 0.449683
vt 0.500404 0.360427
vt 0.708380 0.691644
vt 0.817857 0.442928
vt 0.838304 0.588007
vt 0.753910 0.760282
vt 0.638153 0.837236
vt 0.300310 0.330970
vt 0.191143 0.579366
vt 0.171242 0.434798
vt 0.416179 0.253303
vt 0.254387 0.262174
vt 0.370397 0.185148
vt 0.561679 0.174734
vt 0.687649 0.248408
vt 0.797615 0.800511
vt 0.658248 0.893202
vt 0.899228 0.402389
vt 0.910801 0.569043
vt 0.400888 0.908887
vt 0.251682 0.833961
vt 0.109186 0.619752
vt 0.097743 0.453373
vt 0.211081 0.222346
vt 0.350198 0.129649
vt 0.607069 0.114184
vt 0.756084 0.188717
vt 0.581382 0.115731
vt 0.649203 0.135258
vt 0.285826 0.851107
vt 0.235058 0.808970
vn -0.008133 0.999926 -0.009027
vn -0.003029 0.999254 -0.038495
vn -0.042893 0.965515 -0.256788
vn -0.095034 0.991693 -0.086679
vn 0.008485 0.999937 0.007338
vn -0.008184 0.999961 -0.003413
vn 0.009800 0.999933 0.006195
vn 0.022602 0.999603 -0.016846
vn 0.143197 0.988303 0.052460
vn 0.240534 0.967449 -0.078647
vn 0.285661 0.918634 -0.272964
vn 0.080453 0.920456 -0.382475
vn -0.024540 0.999574 0.015794
vn -0.143396 0.988574 -0.046458
vn -0.243014 0.966410 0.083640
vn -0.000660 0.999582 0.028888
vn -0.284702 0.922785 0.259638
vn -0.082052 0.919069 0.385460
vn 0.043677 0.973760 0.223349
vn 0.112330 0.988994 0.096299
vn 0.421256 0.818269 -0.391127
vn 0.119059 0.821467 -0.557690
vn 0.376325 0.915238 0.143940
vn 0.466605 0.879921 -0.089554
vn -0.139630 0.876019 -0.461622
vn -0.221403 0.898509 -0.379027
vn -0.387001 0.911605 -0.138592
vn -0.477597 0.873649 0.092944
vn -0.418146 0.826266 0.377409
vn -0.119335 0.808338 0.576497
vn 0.233277 0.881629 0.410260
vn 0.318468 0.913227 0.254156
vn -0.349115 0.914593 -0.204058
vn 0.020041 0.772898 0.634213
vn 0.206318 0.814883 0.541664
vn -0.288436 0.906242 -0.309080
s 1
g Platform2_top_lo:LO_top Platform2_top_lo:Platform2_LO_0 LO_top LO_grp
usemtl initialShadingGroup
f 1/1/1 4/2/2 17/3/3 18/4/4
f 2/5/5 1/1/1 8/6/6 7/7/7
f 3/8/8 2/5/5 13/9/9 14/10/10
f 4/2/2 3/8/8 9/11/11 10/12/12
f 5/13/13 8/6/6 20/14/14 21/15/15
f 6/16/16 5/13/13 22/17/17 23/18/18
f 7/7/7 6/16/16 24/19/19 25/20/20
f 10/12/12 9/11/11 12/21/21 11/22/22
f 14/10/10 13/9/9 16/23/23 15/24/24
f 18/4/4 17/3/3 19/25/25 35/35/26
f 21/15/15 20/14/14 28/27/27 29/28/28
f 23/18/18 22/17/17 30/29/29 31/30/30
f 25/20/20 24/19/19 34/34/31 26/32/32
f 12/21/21 9/11/11 14/10/10 15/24/24
f 10/12/12 11/22/22 19/25/25 17/3/3
f 18/4/4 36/36/33 28/27/27 20/14/14
f 21/15/15 29/28/28 30/29/29 22/17/17
f 23/18/18 31/30/30 33/33/34 24/19/19
f 25/20/20 26/32/32 16/23/23 13/9/9
f 24/19/19 6/16/16 23/18/18
f 14/10/10 9/11/11 3/8/8
f 13/9/9 2/5/5 7/7/7 25/20/20
f 4/2/2 10/12/12 17/3/3
f 8/6/6 1/1/1 18/4/4 20/14/14
f 22/17/17 5/13/13 21/15/15
f 1/1/1 2/5/5 3/8/8 4/2/2
f 5/13/13 6/16/16 7/7/7 8/6/6
f 24/19/19 33/33/34 32/31/35
f 34/34/31 24/19/19 32/31/35
f 18/4/4 35/35/26 27/26/36
f 18/4/4 27/26/36 36/36/33
g Platform2_top_lo:default1
v -9.066628 181.998077 -10.358704
v -13.667461 181.953690 2.806774
v -13.665752 181.958740 -2.808320
v -4.413907 181.969269 13.261811
v -9.297096 182.001038 10.458875
v 4.268320 181.957764 12.817997
g default
v -15.244482 173.169464 -3.643394
v -14.931776 173.094055 2.620832
v -10.708407 173.325790 11.879829
v -4.699867 173.257233 13.985567
v 7.310730 173.262650 12.915658
v -7.668755 173.061264 -12.536083
v -15.592057 164.495087 -3.155525
v -7.916028 164.044861 -12.701252
v -16.496037 164.629517 3.603443
v -10.576531 164.653931 12.402672
v -4.449476 164.534637 14.944841
v 7.151153 164.393066 12.835233
v -15.842694 155.352936 -3.198277
v -7.462955 155.391678 -12.556525
v -15.746404 155.638580 2.927891
v -11.379143 155.383118 12.648475
v -4.787479 155.641373 15.015556
v 7.120367 155.449738 12.542500
v -13.969128 146.646454 -2.746283
v -7.426200 146.681351 -12.521131
v -13.952261 146.785309 2.953204
v -9.640848 146.721573 11.087369
v -4.417655 146.675705 13.773450
v 7.137712 146.776321 12.699821
v 3.400097 181.958908 12.862378
v 6.229517 173.262115 13.400527
v 6.110937 164.407227 13.424072
v 6.049429 155.468903 13.167684
v 6.102022 146.766251 13.185062
v -9.790304 181.993500 -9.550797
v -8.471680 173.073059 -11.888431
v -8.768867 164.093948 -11.953016
v -8.337642 155.387451 -11.755948
v -8.060163 146.677551 -11.632144
vt 0.379771 0.668284
vt 0.385742 0.846992
vt 0.268398 0.844003
vt 0.260732 0.667243
vt 0.578202 0.677372
vt 0.568717 0.853335
vt 0.699427 0.686049
vt 0.686309 0.861415
vt 0.940719 0.702718
vt 0.866101 0.874982
vt 0.027086 0.666725
vt 0.089619 0.846312
vt 0.031625 0.486755
vt 0.272464 0.503242
vt 0.396571 0.508145
vt 0.591770 0.515031
vt 0.716072 0.517296
vt 0.947818 0.523828
vt 0.038527 0.314981
vt 0.282298 0.333859
vt 0.393181 0.344031
vt 0.587029 0.345683
vt 0.713356 0.349540
vt 0.950675 0.344539
vt 0.054428 0.143066
vt 0.290921 0.163550
vt 0.407640 0.171120
vt 0.592071 0.176092
vt 0.712722 0.173674
vt 0.947195 0.170782
vt 0.848122 0.873626
vt 0.916589 0.701051
vt 0.924643 0.523175
vt 0.926943 0.345039
vt 0.923748 0.171072
vt 0.109114 0.846060
vt 0.052565 0.666781
vt 0.057888 0.488552
vt 0.065110 0.317039
vt 0.080217 0.145300
vn -0.949312 0.139779 0.281546
vn -0.940422 0.166255 0.296590
vn -0.926955 0.139033 -0.348461
vn -0.909659 0.089592 -0.405579
vn -0.726778 0.135080 0.673459
vn -0.736898 0.168855 0.654576
vn -0.104220 0.085666 0.990858
vn -0.128666 0.110308 0.985534
vn 0.066398 0.082816 0.994350
vn 0.111831 0.065088 0.991593
vn 0.376375 0.044316 0.925407
vn 0.260057 0.122813 0.957751
vn -0.801583 0.112412 -0.587220
vn -0.781147 0.055269 -0.621897
vn -0.766380 -0.001227 -0.642387
vn -0.901120 0.015720 -0.433285
vn -0.952441 0.048034 0.300913
vn -0.705113 0.055089 0.706952
vn -0.054730 0.034246 0.997914
vn 0.162643 0.016972 0.986539
vn 0.475486 -0.019811 0.879500
vn -0.773865 -0.061897 -0.630319
vn -0.901289 -0.084932 -0.424811
vn -0.954408 -0.108627 0.278040
vn -0.730524 -0.099423 0.675610
vn -0.067009 -0.052076 0.996393
vn 0.169888 -0.037246 0.984759
vn 0.482520 -0.009487 0.875833
vn -0.783681 -0.108200 -0.611667
vn -0.899134 -0.155297 -0.409196
vn -0.934890 -0.215193 0.282263
vn -0.724110 -0.217468 0.654501
vn -0.075335 -0.116012 0.990387
vn 0.148304 -0.058893 0.987187
vn 0.466306 0.010770 0.884558
vn -0.663705 0.050814 -0.746266
vn -0.687778 0.077855 -0.721734
vn -0.656728 -0.011644 -0.754038
vn -0.707579 -0.034196 -0.705806
vn -0.745725 -0.019538 -0.665967
s 1
g LO_grp LO_middle1L
usemtl initialShadingGroup
f 44/37/37 38/38/38 39/39/39 43/40/40
f 45/41/41 41/42/42 38/38/38 44/37/37
f 41/42/42 45/41/41 46/43/43 40/44/44
f 67/67/45 68/68/46 47/45/47 42/46/48
f 72/72/49 73/73/50 43/40/40 39/39/39
f 73/73/50 74/74/51 49/50/52 43/40/40
f 43/40/40 49/50/52 51/51/53 44/37/37
f 51/51/53 52/52/54 45/41/41 44/37/37
f 45/41/41 52/52/54 53/53/55 46/43/43
f 68/68/46 69/69/56 54/54/57 47/45/47
f 74/74/51 75/75/58 55/56/59 49/50/52
f 57/57/60 51/51/53 49/50/52 55/56/59
f 57/57/60 58/58/61 52/52/54 51/51/53
f 59/59/62 53/53/55 52/52/54 58/58/61
f 69/69/56 70/70/63 60/60/64 54/54/57
f 75/75/58 76/76/65 61/62/66 55/56/59
f 55/56/59 61/62/66 63/63/67 57/57/60
f 63/63/67 64/64/68 58/58/61 57/57/60
f 65/65/69 59/59/62 58/58/61 64/64/68
f 70/70/63 71/71/70 66/66/71 60/60/64
f 46/43/43 68/68/46 67/67/45 40/44/44
f 53/53/55 69/69/56 68/68/46 46/43/43
f 59/59/62 70/70/63 69/69/56 53/53/55
f 65/65/69 71/71/70 70/70/63 59/59/62
f 48/47/72 73/73/50 72/72/49 37/48/73
f 50/49/74 74/74/51 73/73/50 48/47/72
f 56/55/75 75/75/58 74/74/51 50/49/74
f 62/61/76 76/76/65 75/75/58 56/55/75
g default
v 9.265897 181.973145 10.431675
v 4.268320 181.957764 12.817997
v 7.310730 173.262650 12.915658
v 10.256610 173.338013 10.210517
v 14.679319 173.607834 2.988311
v 13.667500 181.957016 2.809272
v 14.266393 173.465912 -3.473509
v 13.683225 182.026337 -2.812946
v 9.557541 173.830215 -10.716037
v 9.264815 181.944260 -10.430817
v 4.400763 181.936310 -13.237722
v 4.723963 174.505417 -13.894951
v -3.760927 174.031158 -13.869567
v -4.400690 181.920197 -13.237336
v -7.668755 173.061264 -12.536083
v -9.066628 181.998077 -10.358704
v 7.151153 164.393066 12.835233
v 10.279098 164.258865 9.803070
v 14.336770 163.725693 2.873885
v 13.962382 163.548035 -3.638413
v 9.718225 163.699173 -11.177034
v 4.625910 163.440765 -14.318079
v -4.382894 162.592987 -13.731005
v -7.916028 164.044861 -12.701252
v 7.120367 155.449738 12.542500
v 10.997388 155.480606 9.654530
v 15.021833 155.721893 3.697072
v 14.432052 155.762772 -3.753259
v 9.625226 156.161926 -11.593350
v 4.333838 155.952072 -14.013798
v -4.615368 155.526917 -14.183385
v -7.462955 155.391678 -12.556525
v 7.137712 146.776321 12.699821
v 10.647801 146.630234 9.741290
v 13.790928 146.700378 3.457319
v 13.957930 146.735184 -3.650480
v 9.432080 146.575287 -11.547301
v 3.525551 146.680954 -13.861762
v -4.870877 146.843597 -14.051415
v -7.426200 146.681351 -12.521131
v 5.681379 181.962112 12.143267
v 8.287708 173.285263 12.398021
v 8.182751 164.352798 12.219489
v 8.376687 155.459000 11.970015
v 8.283954 146.732498 12.106167
v -8.162207 181.980255 -11.081161
v -6.765601 173.280426 -13.117216
v -7.131401 163.716797 -13.188238
v -6.785543 155.422241 -13.115196
v -6.779710 146.718018 -13.020640
vt 0.142917 0.826093
vt 0.068646 0.831451
vt 0.096691 0.665096
vt 0.151183 0.664534
vt 0.309269 0.821315
vt 0.307124 0.665314
vt 0.425774 0.661930
vt 0.416820 0.821907
vt 0.585318 0.668571
vt 0.584598 0.821055
vt 0.692381 0.681927
vt 0.691685 0.821094
vt 0.858007 0.825213
vt 0.850303 0.677577
vt 0.938965 0.831049
vt 0.908272 0.665368
vt 0.928430 0.662267
vt 0.960435 0.832986
vt 0.094052 0.496945
vt 0.153863 0.493882
vt 0.305049 0.482167
vt 0.428179 0.477676
vt 0.589563 0.480029
vt 0.700384 0.476682
vt 0.868055 0.463391
vt 0.936753 0.492547
vt 0.919704 0.485904
vt 0.096061 0.329338
vt 0.160877 0.329244
vt 0.292703 0.333302
vt 0.428790 0.332426
vt 0.598025 0.340143
vt 0.706003 0.337411
vt 0.872302 0.330683
vt 0.933739 0.329353
vt 0.917368 0.329744
vt 0.095376 0.165609
vt 0.158117 0.163788
vt 0.291423 0.164599
vt 0.427190 0.164967
vt 0.600133 0.160869
vt 0.720128 0.164207
vt 0.878117 0.168949
vt 0.933914 0.166480
vt 0.918676 0.167040
vt 0.039565 0.833542
vt 0.076175 0.665582
vt 0.071647 0.498131
vt 0.070363 0.329315
vt 0.071261 0.166367
vn 0.780340 0.107898 0.615978
vn 0.524899 0.134704 0.840438
vn 0.613594 0.058204 0.787474
vn 0.813829 0.038693 0.579816
vn 0.948735 0.101508 0.299330
vn 0.958877 0.031553 0.282064
vn 0.942284 0.032863 -0.333197
vn 0.942899 0.085824 -0.321833
vn 0.744150 0.045142 -0.666485
vn 0.747321 0.075348 -0.660178
vn 0.206653 0.048690 -0.977202
vn 0.214021 0.082174 -0.973367
vn -0.144707 0.090056 -0.985368
vn -0.101199 0.046149 -0.993795
vn -0.462818 0.098027 -0.881017
vn -0.361287 0.052797 -0.930959
vn -0.561843 0.063213 -0.824826
vn -0.589281 0.098214 -0.801937
vn 0.664861 -0.007656 0.746928
vn 0.820812 0.015169 0.570997
vn 0.965846 0.022908 0.258103
vn 0.944300 0.020674 -0.328435
vn 0.739807 0.022445 -0.672444
vn 0.187081 0.015571 -0.982221
vn -0.085823 0.013017 -0.996225
vn -0.551809 0.005831 -0.833950
vn -0.325155 0.006347 -0.945639
vn 0.634584 0.003294 0.772847
vn 0.813017 0.005428 0.582214
vn 0.965874 -0.005038 0.258965
vn 0.949255 -0.010459 -0.314334
vn 0.717230 -0.009123 -0.696777
vn 0.184304 -0.010719 -0.982811
vn -0.081586 -0.002063 -0.996664
vn -0.605479 -0.022728 -0.795537
vn -0.447278 -0.000507 -0.894395
vn 0.621960 -0.002150 0.783046
vn 0.811203 -0.057315 0.581949
vn 0.965793 -0.090657 0.242951
vn 0.948250 -0.062421 -0.311329
vn 0.702449 -0.034715 -0.710887
vn 0.173154 -0.022833 -0.984630
vn -0.083172 -0.014780 -0.996426
vn -0.624112 -0.007357 -0.781300
vn -0.506864 -0.005708 -0.862007
vn 0.439162 0.160731 0.883913
vn 0.463627 0.083172 0.882118
vn 0.475419 -0.021415 0.879499
vn 0.448671 -0.004597 0.893685
vn 0.436771 0.013278 0.899475
s 1
g LO_grp LO_Middle1R
usemtl unwrapChekcerShaderSG
f 77/77/77 117/78/78 118/79/79 80/80/80
f 82/81/81 77/77/77 80/80/80 81/82/82
f 82/81/81 81/82/82 83/83/83 84/84/84
f 83/83/83 85/85/85 86/86/86 84/84/84
f 88/87/87 87/88/88 86/86/86 85/85/85
f 90/89/89 87/88/88 88/87/87 89/90/90
f 122/91/91 123/92/92 91/93/93 92/94/94
f 118/79/79 119/95/95 94/96/96 80/80/80
f 95/97/97 81/82/82 80/80/80 94/96/96
f 96/98/98 83/83/83 81/82/82 95/97/97
f 97/99/99 85/85/85 83/83/83 96/98/98
f 85/85/85 97/99/99 98/100/100 88/87/87
f 88/87/87 98/100/100 99/101/101 89/90/90
f 100/102/102 91/93/93 123/92/92 124/103/103
f 119/95/95 120/104/104 102/105/105 94/96/96
f 94/96/96 102/105/105 103/106/106 95/97/97
f 104/107/107 96/98/98 95/97/97 103/106/106
f 104/107/107 105/108/108 97/99/99 96/98/98
f 106/109/109 98/100/100 97/99/99 105/108/108
f 106/109/109 107/110/110 99/101/101 98/100/100
f 108/111/111 100/102/102 124/103/103 125/112/112
f 120/104/104 121/113/113 110/114/114 102/105/105
f 111/115/115 103/106/106 102/105/105 110/114/114
f 103/106/106 111/115/115 112/116/116 104/107/107
f 104/107/107 112/116/116 113/117/117 105/108/108
f 114/118/118 106/109/109 105/108/108 113/117/117
f 115/119/119 107/110/110 106/109/109 114/118/118
f 116/120/120 108/111/111 125/112/112 126/121/121
f 118/79/79 117/78/78 78/122/122 79/123/123
f 79/123/123 93/124/124 119/95/95 118/79/79
f 93/124/124 101/125/125 120/104/104 119/95/95
f 101/125/125 109/126/126 121/113/113 120/104/104
f 90/89/89 89/90/90 123/92/92 122/91/91
f 124/103/103 123/92/92 89/90/90 99/101/101
f 125/112/112 124/103/103 99/101/101 107/110/110
f 126/121/121 125/112/112 107/110/110 115/119/119
