# This file uses centimeters as units for non-parametric coordinates.

mtllib Rock6_4.mtl
g default
v -1.104710 2.037857 -1.006893
v -0.873631 -2.308647 -0.987553
v -1.444984 2.037857 -0.015332
v -1.213909 -0.726163 -1.334641
v -1.213909 -2.896820 -0.015332
v -1.651405 -0.863532 -0.015332
v -0.032657 -3.054985 -0.015332
v -0.032657 -2.435539 -1.293804
v -0.032657 -0.419691 -1.738831
v -0.032657 2.039078 -1.330925
v -0.032657 2.037857 -0.015332
v -1.104710 2.037857 0.976231
v -0.873631 -2.308647 0.956890
v -1.213909 -0.726163 1.303970
v -0.032657 -2.435539 1.263142
v -0.032657 -0.419691 1.708168
v -0.032657 2.039078 1.300262
v 0.000000 -2.432846 -1.292362
v 0.000000 -0.419266 -1.736885
v 0.000000 2.036621 -1.329437
v 0.000000 2.037857 -0.015332
v 0.000000 2.036621 1.298775
v 0.000000 -0.419266 1.706223
v 0.000000 -2.432846 1.261700
v 0.000000 -3.054985 -0.015332
vt 0.402690 0.865714
vt 0.226095 0.847228
vt 0.209139 0.448291
vt 0.262646 0.219184
vt 0.402890 0.189583
vt 0.403048 0.448913
vt 0.402423 0.029372
vt 0.167205 0.131764
vt 0.032281 0.447141
vt 0.972305 0.029031
vt 0.796767 0.029026
vt 0.753122 0.826985
vt 0.773720 0.447242
vt 0.638410 0.131170
vt 0.543184 0.218791
vt 0.596899 0.448209
vt 0.579259 0.847427
vt 0.163907 0.128464
vt 0.027695 0.445873
vt 0.972107 0.024661
vt 0.796767 0.024669
vt 0.757960 0.826351
vt 0.778307 0.445979
vt 0.641704 0.127845
vt 0.402406 0.024659
vt 0.621427 0.024659
vt 0.621229 0.029029
vt 0.047388 0.825830
vt 0.052224 0.826474
vt 0.664465 0.172069
vt 0.796766 0.217471
vt 0.929067 0.172070
vn -0.612653 -0.432789 -0.661324
vn -0.782368 -0.622817 0.000000
vn -0.998309 -0.058134 -0.000000
vn -0.719730 -0.034946 -0.693374
vn -0.925951 0.377644 0.000000
vn -0.677434 0.400402 -0.617059
vn -0.272318 -0.497188 -0.823801
vn -0.212016 -0.977266 -0.000000
vn -0.310848 0.021840 -0.950209
vn -0.282273 0.449927 -0.847283
vn 0.000697 1.000000 0.000000
vn -0.612654 -0.432788 0.661324
vn -0.719731 -0.034946 0.693373
vn -0.677434 0.400402 0.617059
vn -0.272320 -0.497187 0.823800
vn -0.310851 0.021839 0.950208
vn -0.282275 0.449926 0.847283
vn 0.059708 -0.006927 -0.998192
vn 0.061007 -0.537995 -0.840738
vn 0.063612 0.569016 -0.819862
vn 0.037586 0.999293 -0.000000
vn 0.063610 0.569016 0.819862
vn 0.059707 -0.006927 0.998192
vn 0.061008 -0.537995 0.840738
vn 0.051890 -0.998653 0.000000
s 1
g RockL_geo Rock6_grp
usemtl unwrapChekcerShaderSG
f 2/4/1 5/5/2 6/6/3 4/3/4
f 4/3/4 6/6/3 3/1/5 1/2/6
f 2/4/1 8/8/7 7/7/8 5/5/2
f 4/3/4 9/9/9 8/8/7 2/4/1
f 1/2/6 10/29/10 9/9/9 4/3/4
f 3/31/5 11/11/11 10/10/10 1/32/6
f 13/15/12 14/16/13 6/6/3 5/5/2
f 14/16/13 12/17/14 3/1/5 6/6/3
f 13/15/12 5/5/2 7/7/8 15/14/15
f 14/16/13 13/15/12 15/14/15 16/13/16
f 12/17/14 14/16/13 16/13/16 17/12/17
f 3/31/5 12/30/14 17/27/17 11/11/11
f 8/8/7 9/9/9 19/19/18 18/18/19
f 9/9/9 10/29/10 20/28/20 19/19/18
f 10/10/10 11/11/11 21/21/21 20/20/20
f 11/11/11 17/27/17 22/26/22 21/21/21
f 17/12/17 16/13/16 23/23/23 22/22/22
f 16/13/16 15/14/15 24/24/24 23/23/23
f 15/14/15 7/7/8 25/25/25 24/24/24
f 7/7/8 8/8/7 18/18/19 25/25/25
g default
v 1.104709 2.037851 -1.006895
v 0.873630 -2.308644 -0.987554
v 1.444986 2.037851 -0.015332
v 1.213907 -0.726163 -1.334637
v 1.213907 -2.896819 -0.015332
v 1.651407 -0.863532 -0.015332
v 0.032657 -3.054984 -0.015332
v 0.032657 -2.435542 -1.293804
v 0.032657 -0.419691 -1.738828
v 0.032657 2.039078 -1.330922
v 0.032657 2.037851 -0.015332
v 1.104709 2.037851 0.976232
v 0.873630 -2.308644 0.956890
v 1.213907 -0.726163 1.303973
v 0.032657 -2.435542 1.263141
v 0.032657 -0.419691 1.708165
v 0.032657 2.039078 1.300259
v -0.000000 -2.432845 -1.292363
v -0.000000 -0.419266 -1.736886
v -0.000000 2.036625 -1.329439
v -0.000000 2.037851 -0.015332
v -0.000000 2.036624 1.298776
v -0.000000 -0.419266 1.706222
v -0.000000 -2.432845 1.261699
v -0.000000 -3.054984 -0.015332
vt 0.597310 0.865714
vt 0.773905 0.847228
vt 0.790861 0.448291
vt 0.737354 0.219184
vt 0.597110 0.189583
vt 0.596952 0.448913
vt 0.597576 0.029372
vt 0.832795 0.131764
vt 0.967719 0.447141
vt 0.027695 0.029031
vt 0.203233 0.029026
vt 0.246878 0.826985
vt 0.226280 0.447242
vt 0.361590 0.131170
vt 0.456816 0.218791
vt 0.403101 0.448209
vt 0.420741 0.847427
vt 0.836093 0.128464
vt 0.972305 0.445873
vt 0.027893 0.024661
vt 0.203233 0.024669
vt 0.242040 0.826351
vt 0.221693 0.445979
vt 0.358296 0.127845
vt 0.597594 0.024659
vt 0.378573 0.024659
vt 0.378771 0.029029
vt 0.952612 0.825830
vt 0.947776 0.826474
vt 0.335535 0.172069
vt 0.203234 0.217471
vt 0.070933 0.172070
vn 0.612654 -0.432788 -0.661325
vn 0.719730 -0.034946 -0.693374
vn 0.998309 -0.058135 0.000000
vn 0.782368 -0.622817 0.000000
vn 0.677433 0.400402 -0.617060
vn 0.925951 0.377643 -0.000000
vn 0.212016 -0.977266 -0.000000
vn 0.272320 -0.497189 -0.823799
vn 0.310850 0.021840 -0.950208
vn 0.282275 0.449929 -0.847281
vn -0.000694 1.000000 -0.000000
vn 0.612654 -0.432788 0.661324
vn 0.719730 -0.034946 0.693374
vn 0.677433 0.400402 0.617060
vn 0.272320 -0.497189 0.823799
vn 0.310850 0.021840 0.950208
vn 0.282275 0.449929 0.847281
vn -0.061008 -0.537973 -0.840752
vn -0.059622 -0.006928 -0.998197
vn -0.063481 0.569011 -0.819876
vn -0.037535 0.999295 0.000000
vn -0.063497 0.569005 0.819879
vn -0.059630 -0.006928 0.998197
vn -0.061010 -0.537973 0.840751
vn -0.051945 -0.998650 0.000000
s 1
g Rock6_grp RockR_geo
usemtl unwrapChekcerShaderSG
f 27/36/26 29/35/27 31/38/28 30/37/29
f 29/35/27 26/34/30 28/33/31 31/38/28
f 27/36/26 30/37/29 32/39/32 33/40/33
f 29/35/27 27/36/26 33/40/33 34/41/34
f 26/34/30 29/35/27 34/41/34 35/61/35
f 28/63/31 26/64/30 35/42/35 36/43/36
f 38/47/37 30/37/29 31/38/28 39/48/38
f 39/48/38 31/38/28 28/33/31 37/49/39
f 38/47/37 40/46/40 32/39/32 30/37/29
f 39/48/38 41/45/41 40/46/40 38/47/37
f 37/49/39 42/44/42 41/45/41 39/48/38
f 28/63/31 36/43/36 42/59/42 37/62/39
f 33/40/33 43/50/43 44/51/44 34/41/34
f 34/41/34 44/51/44 45/60/45 35/61/35
f 35/42/35 45/52/45 46/53/46 36/43/36
f 36/43/36 46/53/46 47/58/47 42/59/42
f 42/44/42 47/54/47 48/55/48 41/45/41
f 41/45/41 48/55/48 49/56/49 40/46/40
f 40/46/40 49/56/49 50/57/50 32/39/32
f 32/39/32 50/57/50 43/50/43 33/40/33
