# This file uses centimeters as units for non-parametric coordinates.

mtllib RockBig2.mtl
g default
v 2.034735 2.285872 2.202279
v 2.639445 2.531370 0.022195
v 2.288679 4.203400 0.024267
v 2.154422 4.333041 1.929257
v 2.170982 2.608855 -2.680035
v 2.107467 4.079728 -2.089902
v 1.040571 2.496686 -3.288861
v 0.991169 4.058486 -2.909535
v 0.072224 4.074396 -2.996056
v -0.020499 2.962971 -3.705398
v -1.163757 4.058360 -2.915406
v -0.973354 2.412059 -2.893542
v -2.082558 2.311571 -2.125826
v -1.760870 4.178440 -2.146770
v -2.259029 4.096379 -0.601757
v -3.063104 2.333411 -0.887059
v -2.457714 4.010035 0.470962
v -2.933224 2.394431 0.418992
v -3.220138 2.480539 2.016314
v -2.653547 3.961091 1.427960
v -1.354401 2.352275 2.774265
v -1.108771 4.100250 2.694908
v 0.481888 4.233738 2.915092
v 0.475998 2.472236 3.253078
v 2.209083 0.334737 2.647380
v 2.200122 0.424391 0.825845
v 2.094047 0.395968 -2.246035
v 0.997672 0.440446 -2.658619
v 0.067110 0.431034 -2.797658
v -0.975302 0.440718 -2.900693
v -1.717849 0.317130 -1.929004
v -1.959373 0.362038 -0.733315
v -2.278571 0.357338 0.299261
v -2.195018 0.154477 1.252304
v -0.406976 0.188213 1.722766
v 0.307502 0.275076 1.956669
v 2.202008 -1.583043 -0.285319
v 1.875080 -1.663155 2.263568
v 2.315925 -1.446476 -2.104845
v 1.575751 -1.338566 -2.640113
v 0.094919 -1.569188 -2.993748
v -0.928491 -1.690817 -3.533470
v -1.751987 -1.803698 -2.661676
v -1.675551 -1.574491 -0.536909
v -2.798251 -1.720890 0.590085
v -2.381389 -1.980709 1.785981
v -0.242279 -1.502575 1.927436
v 0.992637 -1.511375 2.439106
v 2.409558 -3.606152 -0.370843
v 1.887117 -3.326547 2.078404
v 1.458903 -3.513281 -1.972853
v 0.902091 -3.537151 -2.064527
v 0.020196 -3.588842 -2.253443
v -0.921148 -3.562528 -2.407823
v -1.665150 -3.390291 -1.570596
v -1.712629 -3.364694 0.740322
v -1.478358 -3.333116 1.824326
v -1.613307 -3.441149 -0.486242
v -0.209968 -3.326527 2.074455
v 1.104966 -3.181368 2.416108
v 1.697838 -4.740399 -1.526514
v 2.187656 -4.684122 -0.224941
v 2.174943 -4.316984 0.972142
v -0.001527 -4.938254 -1.897563
v -1.003582 -4.893165 -2.403298
v 0.827475 -4.787779 -1.867524
v -1.663562 -4.839466 -1.411305
v -1.692899 -4.713019 -0.471588
v -1.900832 -4.685621 0.732102
v -1.479723 -4.610957 1.693851
v 1.228182 -4.313277 2.223178
v -0.049390 -4.486875 1.922222
v 0.313872 -5.081064 0.228391
v 0.284014 4.593811 -0.103663
vt 0.441106 0.131965
vt 0.322181 0.104430
vt 0.516547 0.884186
vt 0.588609 0.956704
vt 0.449864 0.792307
vt 0.181358 0.093885
vt 0.117433 0.095307
vt 0.465742 0.720054
vt 0.499443 0.684063
vt 0.981548 0.237496
vt 0.999023 0.146546
vt 0.912651 0.220963
vt 0.950030 0.125591
vt 0.839443 0.197366
vt 0.683066 0.698325
vt 0.780136 0.177163
vt 0.731864 0.739539
vt 0.714666 0.154261
vt 0.772102 0.772853
vt 0.749937 0.877498
vt 0.626132 0.137744
vt 0.535507 0.118901
vt 0.691144 0.940351
vt 0.347364 0.223894
vt 0.437179 0.236301
vt 0.183687 0.214108
vt 0.118044 0.210496
vt 0.939776 0.342813
vt 0.873073 0.329867
vt 0.806603 0.310328
vt 0.746400 0.291585
vt 0.686247 0.283700
vt 0.579003 0.264974
vt 0.538811 0.251202
vt 0.425170 0.339575
vt 0.285702 0.326682
vt 0.191256 0.312568
vt 0.144290 0.307559
vt 0.935727 0.465519
vt 0.872869 0.451713
vt 0.772444 0.411553
vt 0.700319 0.393180
vt 0.642673 0.394074
vt 0.546546 0.351164
vt 0.476090 0.340457
vt 0.408614 0.427532
vt 0.270692 0.434073
vt 0.167284 0.427665
vt 0.136580 0.433503
vt 0.846582 0.553889
vt 0.791743 0.522747
vt 0.599694 0.464179
vt 0.662635 0.486138
vt 0.731430 0.507394
vt 0.527807 0.449762
vt 0.455450 0.427414
vt 0.262589 0.791341
vt 0.277032 0.717629
vt 0.229383 0.850338
vt 0.817099 0.619320
vt 0.246888 0.677168
vt 0.757236 0.594260
vt 0.089893 0.670564
vt 0.047535 0.721018
vt 0.040519 0.777340
vt 0.099227 0.829335
vt 0.149911 0.879709
vt 0.164100 0.757420
vt 0.595556 0.808665
vt 0.000977 0.099380
vt 0.062411 0.070041
vt 0.008429 0.209449
vt 0.065259 0.209742
vt 0.003615 0.332796
vt 0.037058 0.449025
vt 0.065381 0.323633
vt 0.088215 0.441957
vt 0.103035 0.516746
vt 0.208746 0.652474
vt 0.176741 0.601502
vt 0.551419 0.643127
vt 0.602887 0.652859
vt 0.118600 0.628421
vt 0.434108 0.015676
vt 0.542525 0.026006
vt 0.631591 0.045339
vt 0.744421 0.074464
vt 0.800922 0.085395
vt 0.863340 0.098860
vt 0.006118 0.000977
vt 0.077741 0.002911
vt 0.129741 0.009638
vt 0.209377 0.016394
vt 0.327479 0.012571
vt 0.435433 0.486288
vt 0.344261 0.478837
vt 0.586498 0.532615
vt 0.506987 0.510098
vt 0.642695 0.554312
vt 0.709535 0.572770
vt 0.042757 0.520701
vt 0.275905 0.493229
vt 0.197016 0.494228
vt 0.145804 0.501352
vn 0.784243 -0.013369 0.620310
vn 0.999811 -0.017531 -0.008365
vn 0.873315 0.487152 -0.002074
vn 0.737603 0.494861 0.459407
vn 0.786180 0.527415 -0.322108
vn 0.896907 -0.023381 -0.441602
vn 0.354862 -0.076444 -0.931788
vn 0.324120 0.679935 -0.657750
vn -0.062031 0.022298 -0.997825
vn -0.037779 0.750495 -0.659796
vn -0.513862 -0.059694 -0.855793
vn -0.450191 0.543914 -0.708156
vn -0.812701 -0.031259 -0.581843
vn -0.635472 0.608665 -0.475082
vn -0.959615 -0.040386 -0.278402
vn -0.711607 0.677987 -0.184253
vn -0.992834 -0.074691 -0.093286
vn -0.749322 0.659564 -0.059091
vn -0.754841 -0.146330 0.639376
vn -0.662707 0.655593 0.361963
vn -0.311798 0.643118 0.699415
vn -0.327374 -0.196074 0.924327
vn 0.089107 -0.098942 0.991096
vn 0.159031 0.572221 0.804532
vn 0.997164 -0.067037 0.034197
vn 0.749875 -0.120444 0.650523
vn 0.939208 -0.086166 -0.332360
vn 0.305348 -0.118967 -0.944780
vn 0.103730 -0.067151 -0.992336
vn -0.446111 0.031484 -0.894424
vn -0.902900 -0.090157 -0.420289
vn -0.940312 -0.207602 -0.269659
vn -0.968724 -0.189984 -0.159627
vn -0.650178 -0.191764 0.735183
vn -0.255231 -0.211554 0.943452
vn -0.153531 -0.218193 0.963753
vn 0.870525 -0.035466 0.490844
vn 0.999783 -0.019929 0.006129
vn 0.940890 -0.052526 -0.334614
vn 0.332973 -0.105537 -0.937012
vn 0.271461 -0.131905 -0.953368
vn -0.273672 -0.096819 -0.956938
vn -0.917570 -0.085988 -0.388164
vn -0.965343 -0.095673 -0.242817
vn -0.981747 -0.123885 -0.144313
vn -0.592178 -0.046945 0.804438
vn -0.227210 0.099321 0.968768
vn -0.185627 0.017912 0.982457
vn 0.905909 -0.048149 0.420725
vn 0.995815 -0.057278 -0.071213
vn 0.781622 -0.209612 -0.587477
vn 0.271077 -0.286069 -0.919066
vn 0.268914 -0.300767 -0.915000
vn -0.285050 -0.338953 -0.896581
vn -0.965894 -0.107144 -0.235731
vn -0.485656 -0.147877 0.861551
vn -0.967605 -0.244251 -0.063889
vn -0.986333 -0.075022 -0.146693
vn -0.201890 -0.045785 0.978337
vn -0.000305 -0.099777 0.995010
vn 0.746146 -0.660709 -0.082036
vn 0.545173 -0.743932 -0.386459
vn 0.816834 -0.492163 0.300928
vn 0.192256 -0.723370 -0.663154
vn -0.320129 -0.547010 -0.773497
vn 0.224166 -0.800341 -0.556062
vn -0.778308 -0.580409 -0.239504
vn -0.862671 -0.505564 -0.014260
vn -0.866115 -0.491978 0.088331
vn -0.526151 -0.507567 0.682306
vn -0.103576 -0.588405 0.801905
vn 0.225345 -0.606761 0.762273
vn 0.080540 -0.991476 0.102415
vn -0.008470 0.999941 -0.006883
s 1
g Rock_LO_geo
usemtl initialShadingGroup
f 1/1/1 2/2/2 3/94/3 4/84/4
f 6/93/5 3/94/3 2/2/2 5/6/6
f 6/93/5 5/6/6 7/7/7 8/92/8
f 10/71/9 9/91/10 8/92/8 7/7/7
f 12/70/11 11/90/12 9/91/10 10/71/9
f 11/11/12 12/10/11 13/12/13 14/13/14
f 16/14/15 15/89/16 14/13/14 13/12/13
f 18/16/17 17/88/18 15/89/16 16/14/15
f 17/88/18 18/16/17 19/18/19 20/87/20
f 22/86/21 20/87/20 19/18/19 21/21/22
f 24/22/23 23/85/24 22/86/21 21/21/22
f 1/1/1 4/84/4 23/85/24 24/22/23
f 26/24/25 2/2/2 1/1/1 25/25/26
f 27/26/27 5/6/6 2/2/2 26/24/25
f 5/6/6 27/26/27 28/27/28 7/7/7
f 7/7/7 28/27/28 29/73/29 10/71/9
f 30/72/30 12/70/11 10/71/9 29/73/29
f 12/10/11 30/28/30 31/29/31 13/12/13
f 13/12/13 31/29/31 32/30/32 16/14/15
f 16/14/15 32/30/32 33/31/33 18/16/17
f 18/16/17 33/31/33 34/32/34 19/18/19
f 19/18/19 34/32/34 35/33/35 21/21/22
f 21/21/22 35/33/35 36/34/36 24/22/23
f 24/22/23 36/34/36 25/25/26 1/1/1
f 38/35/37 37/36/38 26/24/25 25/25/26
f 26/24/25 37/36/38 39/37/39 27/26/27
f 27/26/27 39/37/39 40/38/40 28/27/28
f 28/27/28 40/38/40 41/76/41 29/73/29
f 42/74/42 30/72/30 29/73/29 41/76/41
f 43/40/43 31/29/31 30/28/30 42/39/42
f 31/29/31 43/40/43 44/41/44 32/30/32
f 32/30/32 44/41/44 45/42/45 33/31/33
f 33/31/33 45/42/45 46/43/46 34/32/34
f 46/43/46 47/44/47 35/33/35 34/32/34
f 35/33/35 47/44/47 48/45/48 36/34/36
f 36/34/36 48/45/48 38/35/37 25/25/26
f 50/46/49 49/47/50 37/36/38 38/35/37
f 51/48/51 39/37/39 37/36/38 49/47/50
f 39/37/39 51/48/51 52/49/52 40/38/40
f 53/77/53 41/76/41 40/38/40 52/49/52
f 41/76/41 53/77/53 54/75/54 42/74/42
f 55/51/55 43/40/43 42/39/42 54/50/54
f 57/52/56 46/43/46 45/42/45 56/53/57
f 56/53/57 45/42/45 44/41/44 58/54/58
f 43/40/43 55/51/55 58/54/58 44/41/44
f 59/55/59 47/44/47 46/43/46 57/52/56
f 60/56/60 48/45/48 47/44/47 59/55/59
f 62/102/61 61/103/62 51/48/51 49/47/50
f 49/47/50 50/46/49 63/96/63 62/102/61
f 53/77/53 64/78/64 65/101/65 54/75/54
f 66/104/66 52/49/52 51/48/51 61/103/62
f 54/50/54 65/60/65 67/62/67 55/51/55
f 68/100/68 58/54/58 55/51/55 67/62/67
f 58/54/58 68/100/68 69/99/69 56/53/57
f 56/53/57 69/99/69 70/97/70 57/52/56
f 72/98/71 71/95/72 60/56/60 59/55/59
f 57/52/56 70/97/70 72/98/71 59/55/59
f 63/96/63 50/46/49 60/56/60 71/95/72
f 73/68/73 63/59/63 71/67/72
f 62/57/61 63/59/63 73/68/73
f 64/79/64 73/68/73 65/80/65
f 73/68/73 67/83/67 65/80/65
f 69/64/69 73/68/73 70/65/70
f 72/66/71 70/65/70 73/68/73
f 38/35/37 48/45/48 60/56/60 50/46/49
f 74/69/74 4/4/4 3/3/3
f 6/5/5 74/69/74 3/3/3
f 11/81/12 74/69/74 9/9/10
f 17/17/18 74/69/74 15/15/16
f 23/23/24 74/69/74 22/20/21
f 22/20/21 74/69/74 20/19/20
f 20/19/20 74/69/74 17/17/18
f 15/15/16 74/69/74 14/82/14
f 14/82/14 74/69/74 11/81/12
f 8/8/8 74/69/74 6/5/5
f 74/69/74 23/23/24 4/4/4
f 73/68/73 71/67/72 72/66/71
f 62/57/61 73/68/73 66/61/66 61/58/62
f 64/78/64 53/77/53 52/49/52 66/104/66
f 73/68/73 64/79/64 66/61/66
f 73/68/73 68/63/68 67/83/67
f 68/63/68 73/68/73 69/64/69
f 8/8/8 9/9/10 74/69/74
