# This file uses meters as units for non-parametric coordinates.

mtllib Bridge_bottom.mtl
g default
v -7.297772 -1.685641 33.701787
v -7.166112 -1.740176 33.701787
v -7.166112 -1.685641 33.833447
v -7.166112 -1.553981 33.887981
v -7.297772 -1.553981 33.833447
v -7.352307 -1.553981 33.701787
v 7.297742 -1.685641 33.701787
v 7.352278 -1.553981 33.701787
v 7.297742 -1.553981 33.833447
v 7.166082 -1.553981 33.887981
v 7.166082 -1.685641 33.833447
v 7.166082 -1.740176 33.701787
v -7.297772 -1.049857 33.701787
v -7.352307 -1.181516 33.701787
v -7.297772 -1.181516 33.833447
v -7.166112 -1.181516 33.887981
v -7.166112 -1.049857 33.833447
v -7.166112 -0.995321 33.701787
v 7.297742 -1.049857 33.701787
v 7.166082 -0.995321 33.701787
v 7.166082 -1.049857 33.833447
v 7.166082 -1.181516 33.887981
v 7.297742 -1.181516 33.833447
v 7.352278 -1.181516 33.701787
v -7.297772 -1.181516 -34.210110
v -7.352307 -1.181516 -34.078452
v -7.297772 -1.049857 -34.078452
v -7.166112 -0.995321 -34.078452
v -7.166112 -1.049857 -34.210110
v -7.166112 -1.181516 -34.264648
v 7.297742 -1.181516 -34.210110
v 7.166082 -1.181516 -34.264648
v 7.166082 -1.049857 -34.210110
v 7.166082 -0.995321 -34.078452
v 7.297742 -1.049857 -34.078452
v 7.352278 -1.181516 -34.078452
v -7.297772 -1.685641 -34.078452
v -7.352307 -1.553981 -34.078452
v -7.297772 -1.553981 -34.210110
v -7.166112 -1.553981 -34.264648
v -7.166112 -1.685641 -34.210110
v -7.166112 -1.740176 -34.078452
v 7.297742 -1.685641 -34.078452
v 7.166082 -1.740176 -34.078452
v 7.166082 -1.685641 -34.210110
v 7.166082 -1.553981 -34.264648
v 7.297742 -1.553981 -34.210110
v 7.352278 -1.553981 -34.078452
v -7.273574 -1.661443 33.809250
v 7.273545 -1.661443 33.809250
v -7.273574 -1.074054 33.809250
v 7.273545 -1.074054 33.809250
v -7.273574 -1.074054 -34.185918
v 7.273545 -1.074054 -34.185918
v -7.273574 -1.661443 -34.185918
v 7.273545 -1.661443 -34.185918
vt 0.000970 0.003951
vt 0.002897 0.003951
vt 0.002897 0.996081
vt 0.000970 0.996081
vt 0.002897 0.002024
vt 0.001324 0.002378
vt 0.008349 0.003951
vt 0.008349 0.996081
vt 0.002897 0.998008
vt 0.001324 0.997654
vt 0.008349 0.002024
vt 0.010276 0.003951
vt 0.010276 0.996081
vt 0.008349 0.998008
vt 0.009922 0.002378
vt 0.009922 0.997654
vt 0.017761 0.996081
vt 0.015834 0.996081
vt 0.015834 0.003951
vt 0.017761 0.003951
vt 0.017761 0.998008
vt 0.016188 0.997654
vt 0.017761 0.002024
vt 0.016188 0.002378
vt 0.023213 0.003951
vt 0.023213 0.996081
vt 0.023213 0.998008
vt 0.023213 0.002024
vt 0.025140 0.996081
vt 0.025140 0.003951
vt 0.024786 0.997654
vt 0.024786 0.002378
vt 0.162107 0.989215
vt 0.160210 0.989215
vt 0.160210 0.012821
vt 0.162107 0.012821
vt 0.162107 0.991111
vt 0.160559 0.990763
vt 0.162107 0.010924
vt 0.160559 0.011272
vt 0.368566 0.012821
vt 0.368566 0.989215
vt 0.368566 0.991111
vt 0.368566 0.010924
vt 0.370463 0.989215
vt 0.370463 0.012821
vt 0.370114 0.990763
vt 0.370114 0.011272
vt 0.755342 0.012821
vt 0.757238 0.012821
vt 0.757238 0.989215
vt 0.755342 0.989215
vt 0.757238 0.010924
vt 0.755690 0.011272
vt 0.963698 0.012821
vt 0.963698 0.989215
vt 0.757238 0.991111
vt 0.755690 0.990763
vt 0.963698 0.010924
vt 0.965595 0.012821
vt 0.965595 0.989215
vt 0.963698 0.991111
vt 0.965246 0.011272
vt 0.965246 0.990763
vt 0.478541 0.213821
vt 0.476613 0.213821
vt 0.476613 0.003952
vt 0.478541 0.003952
vt 0.478541 0.215749
vt 0.476967 0.215395
vt 0.478541 0.002024
vt 0.476967 0.002379
vt 0.483995 0.003952
vt 0.483995 0.213821
vt 0.483995 0.215749
vt 0.483995 0.002024
vt 0.485923 0.213821
vt 0.485923 0.003952
vt 0.485568 0.215395
vt 0.485568 0.002379
vt 0.463677 0.215750
vt 0.463677 0.213822
vt 0.469131 0.213822
vt 0.469131 0.215750
vt 0.461749 0.213822
vt 0.462103 0.215396
vt 0.463677 0.003952
vt 0.469131 0.003952
vt 0.471059 0.213822
vt 0.470705 0.215396
vt 0.461749 0.003952
vt 0.463677 0.002024
vt 0.469131 0.002024
vt 0.471059 0.003952
vt 0.462103 0.002379
vt 0.470705 0.002379
vn -0.003768 -0.999993 0.000800
vn -0.382629 -0.923902 0.000496
vn -0.382629 -0.923902 -0.000496
vn -0.003768 -0.999993 -0.000800
vn -0.923901 -0.382631 0.000496
vn -0.994205 -0.107495 0.000726
vn -0.994205 -0.107495 -0.000726
vn -0.923901 -0.382631 -0.000496
vn -0.003412 -0.107278 0.994223
vn -0.002334 -0.382413 0.923989
vn 0.002334 -0.382413 0.923989
vn 0.003412 -0.107278 0.994223
vn -0.002334 -0.923985 0.382421
vn 0.003768 -0.999993 0.000800
vn 0.002334 -0.923985 0.382421
vn -0.924787 -0.071421 0.373723
vn -0.924786 0.071422 0.373723
vn -0.994205 0.107495 0.000726
vn -0.373715 -0.071419 0.924790
vn -0.003412 0.107278 0.994223
vn -0.373713 0.071419 0.924791
vn 0.994205 -0.107495 0.000726
vn 0.923901 -0.382631 0.000496
vn 0.923901 -0.382631 -0.000496
vn 0.994205 -0.107494 -0.000726
vn 0.382627 -0.923903 0.000496
vn 0.003768 -0.999993 -0.000800
vn 0.382627 -0.923903 -0.000496
vn 0.373715 -0.071419 0.924790
vn 0.373713 0.071419 0.924791
vn 0.003412 0.107278 0.994223
vn 0.924787 -0.071422 0.373723
vn 0.994205 0.107495 0.000726
vn 0.924787 0.071421 0.373722
vn -0.923901 0.382632 0.000496
vn -0.923901 0.382632 -0.000496
vn -0.994205 0.107495 -0.000726
vn -0.382630 0.923902 0.000496
vn -0.003768 0.999993 0.000801
vn -0.003768 0.999993 -0.000801
vn -0.382630 0.923902 -0.000496
vn -0.002334 0.923985 0.382421
vn 0.002334 0.923985 0.382421
vn 0.003768 0.999993 0.000801
vn -0.002334 0.382413 0.923989
vn 0.002334 0.382413 0.923989
vn 0.382628 0.923902 0.000496
vn 0.382628 0.923902 -0.000496
vn 0.003768 0.999993 -0.000801
vn 0.923901 0.382632 0.000496
vn 0.994205 0.107495 -0.000726
vn 0.923901 0.382632 -0.000496
vn -0.924783 0.071423 -0.373730
vn -0.924783 -0.071425 -0.373731
vn -0.373742 0.071418 -0.924779
vn -0.003413 0.107288 -0.994222
vn -0.003413 -0.107287 -0.994222
vn -0.373743 -0.071418 -0.924779
vn -0.002334 0.382442 -0.923977
vn 0.002334 0.382442 -0.923977
vn 0.003413 0.107288 -0.994222
vn -0.002334 0.923983 -0.382427
vn 0.002334 0.923983 -0.382427
vn 0.373741 0.071418 -0.924779
vn 0.373740 -0.071418 -0.924780
vn 0.003413 -0.107288 -0.994222
vn 0.924783 0.071424 -0.373731
vn 0.924784 -0.071422 -0.373730
vn -0.002334 -0.923983 -0.382427
vn 0.002334 -0.923983 -0.382427
vn -0.002334 -0.382442 -0.923977
vn 0.002334 -0.382442 -0.923977
vn -0.887917 -0.325271 0.325272
vn -0.325270 -0.887919 0.325267
vn -0.325276 -0.325261 0.887919
vn 0.325267 -0.887920 0.325269
vn 0.887915 -0.325275 0.325274
vn 0.325282 -0.325258 0.887918
vn -0.325267 0.887920 0.325267
vn -0.887915 0.325274 0.325274
vn -0.325263 0.325263 0.887923
vn 0.887918 0.325270 0.325269
vn 0.325267 0.887920 0.325270
vn 0.325272 0.325260 0.887921
vn -0.325257 0.325265 -0.887925
vn -0.887919 0.325267 -0.325272
vn -0.325264 0.887921 -0.325268
vn 0.887917 0.325270 -0.325273
vn 0.325261 0.325262 -0.887924
vn 0.325264 0.887921 -0.325269
vn -0.325264 -0.887921 -0.325268
vn -0.887915 -0.325272 -0.325276
vn -0.325262 -0.325264 -0.887923
vn 0.887919 -0.325266 -0.325271
vn 0.325264 -0.887920 -0.325270
vn 0.325255 -0.325263 -0.887926
s 1
g Bridge_mil_bottom_geo
usemtl initialShadingGroup
f 2/33/1 1/34/2 37/35/3 42/36/4
s 2
f 1/1/5 6/2/6 38/3/7 37/4/8
s 3
f 4/65/9 3/66/10 11/67/11 10/68/12
s 1
f 3/37/13 2/33/1 12/42/14 11/43/15
s 2
f 6/2/6 5/5/16 15/11/17 14/7/18
s 3
f 5/69/19 4/65/9 16/74/20 15/75/21
s 4
f 8/17/22 7/18/23 43/19/24 48/20/25
s 1
f 7/45/26 12/42/14 44/41/27 43/46/28
s 3
f 10/68/12 9/71/29 23/76/30 22/73/31
s 4
f 9/21/32 8/17/22 24/26/33 23/27/34
s 2
f 14/7/18 13/12/35 27/13/36 26/8/37
s 5
f 13/49/38 18/50/39 28/51/40 27/52/41
f 18/50/39 17/53/42 21/59/43 20/55/44
s 3
f 17/77/45 16/74/20 22/73/31 21/78/46
s 5
f 20/55/44 19/60/47 35/61/48 34/56/49
s 4
f 19/29/50 24/26/33 36/25/51 35/30/52
s 2
f 26/8/37 25/14/53 39/9/54 38/3/7
s 6
f 25/81/55 30/82/56 40/83/57 39/84/58
f 30/82/56 29/85/59 33/91/60 32/87/61
s 5
f 29/57/62 28/51/40 34/56/49 33/62/63
s 6
f 32/87/61 31/92/64 47/93/65 46/88/66
s 4
f 31/28/67 36/25/51 48/20/25 47/23/68
s 1
f 42/36/4 41/39/69 45/44/70 44/41/27
s 6
f 41/89/71 40/83/57 46/88/66 45/94/72
s 3
f 4/65/9 10/68/12 22/73/31 16/74/20
s 5
f 18/50/39 20/55/44 34/56/49 28/51/40
s 6
f 30/82/56 32/87/61 46/88/66 40/83/57
s 1
f 42/36/4 44/41/27 12/42/14 2/33/1
s 4
f 8/17/22 48/20/25 36/25/51 24/26/33
s 2
f 38/3/7 6/2/6 14/7/18 26/8/37
f 5/5/16 6/2/6 1/1/5 49/6/73
s 1
f 1/34/2 2/33/1 3/37/13 49/38/74
s 3
f 3/66/10 4/65/9 5/69/19 49/70/75
s 1
f 11/43/15 12/42/14 7/45/26 50/47/76
s 4
f 7/18/23 8/17/22 9/21/32 50/22/77
s 3
f 9/71/29 10/68/12 11/67/11 50/72/78
s 5
f 17/53/42 18/50/39 13/49/38 51/54/79
s 2
f 13/12/35 14/7/18 15/11/17 51/15/80
s 3
f 15/75/21 16/74/20 17/77/45 51/79/81
s 4
f 23/27/34 24/26/33 19/29/50 52/31/82
s 5
f 19/60/47 20/55/44 21/59/43 52/63/83
s 3
f 21/78/46 22/73/31 23/76/30 52/80/84
s 6
f 29/85/59 30/82/56 25/81/55 53/86/85
s 2
f 25/14/53 26/8/37 27/13/36 53/16/86
s 5
f 27/52/41 28/51/40 29/57/62 53/58/87
s 4
f 35/30/52 36/25/51 31/28/67 54/32/88
s 6
f 31/92/64 32/87/61 33/91/60 54/95/89
s 5
f 33/62/63 34/56/49 35/61/48 54/64/90
s 1
f 41/39/69 42/36/4 37/35/3 55/40/91
s 2
f 37/4/8 38/3/7 39/9/54 55/10/92
s 6
f 39/84/58 40/83/57 41/89/71 55/90/93
s 4
f 47/23/68 48/20/25 43/19/24 56/24/94
s 1
f 43/46/28 44/41/27 45/44/70 56/48/95
s 6
f 45/94/72 46/88/66 47/93/65 56/96/96
