# This file uses centimeters as units for non-parametric coordinates.

mtllib Cliff3.mtl
g default
v 22.624023 9.023438 -3.978027
v 14.952759 6.937500 -14.429443
v 16.546021 27.228516 -15.999512
v 21.631592 27.121094 0.686584
v 15.587036 8.054688 10.447510
v 13.972046 26.460938 11.811890
v 2.681000 26.263672 19.964111
v 0.389656 6.892578 16.634644
v -16.956177 27.156250 15.527954
v -17.149536 6.462891 14.084229
v -21.665283 28.244141 1.615997
v -16.610352 7.355469 -0.154114
v -15.261963 27.242188 -13.508667
v -14.559814 8.529297 -13.786865
v -1.433517 27.181641 -18.680176
v -3.942749 7.091797 -14.940674
v -19.492065 -2.923828 14.745239
v 0.323774 -4.539063 13.591797
v 15.419800 -4.869141 9.476685
v 18.852661 -4.566406 -5.284729
v 13.478516 -5.744141 -14.440796
v -4.791595 -5.144531 -14.916260
v -13.911011 -5.447266 -13.123657
v -16.985840 -5.363281 -0.229362
v -5.989624 -17.175781 -19.463745
v 13.368164 -17.175781 -17.502563
v -12.519409 -17.175781 -11.443726
v -17.688965 -17.175781 -0.044952
v -15.584961 -17.175781 13.406982
v 0.651718 -17.175781 15.473877
v 16.394653 -17.175781 10.141724
v 16.575684 -17.175781 -7.278198
vt 0.744289 0.546212
vt 0.836316 0.515470
vt 0.855259 0.672318
vt 0.723123 0.684869
vt 0.621675 0.687690
vt 0.624635 0.545317
vt 0.517532 0.696607
vt 0.499626 0.547072
vt 0.365068 0.700335
vt 0.362302 0.542529
vt 0.253370 0.710720
vt 0.249653 0.546007
vt 0.130167 0.686370
vt 0.142914 0.545010
vt 0.018232 0.672407
vt 0.977128 0.492712
vt 0.358063 0.473027
vt 0.501992 0.456382
vt 0.623810 0.446069
vt 0.743976 0.440034
vt 0.826595 0.415742
vt 0.968683 0.402528
vt 0.154102 0.440344
vt 0.252479 0.446089
vt 0.823034 0.321879
vt 0.969629 0.304664
vt 0.167245 0.345042
vt 0.263831 0.344259
vt 0.369012 0.359912
vt 0.494790 0.360055
vt 0.618168 0.350223
vt 0.748625 0.344539
vt 0.089440 0.330418
vt 0.084797 0.429540
vt 0.063626 0.522008
vt 0.989306 0.648140
vn 0.997791 -0.058202 -0.032028
vn 0.460029 -0.081313 -0.884173
vn 0.507362 -0.080326 -0.857981
vn 0.995501 -0.002394 0.094719
vn 0.683137 -0.075115 0.726417
vn 0.703751 -0.114745 0.701119
vn 0.118718 -0.116938 0.986018
vn 0.101724 -0.123226 0.987151
vn -0.659099 -0.139483 0.739008
vn -0.665401 -0.097424 0.740102
vn -0.989925 -0.127513 -0.061561
vn -0.992300 -0.063218 -0.106507
vn -0.744153 -0.117104 -0.657665
vn -0.736255 -0.086454 -0.671159
vn -0.035405 -0.117290 -0.992466
vn -0.048802 -0.073661 -0.996089
vn -0.692949 -0.030739 0.720331
vn 0.134367 -0.031255 0.990439
vn 0.742780 -0.075892 0.665221
vn 0.991163 -0.111714 -0.071532
vn 0.415451 0.076466 -0.906396
vn -0.079681 0.115971 -0.990051
vn -0.792750 -0.006091 -0.609516
vn -0.988550 -0.026450 -0.148556
vn 0.374548 0.239367 -0.895778
vn -0.123025 0.251872 -0.959909
vn -0.825498 0.008225 -0.564345
vn -0.984999 -0.092722 -0.145530
vn -0.576605 -0.054958 0.815173
vn 0.122864 0.061327 0.990527
vn 0.771031 0.032598 0.635963
vn 0.992283 -0.036260 -0.118573
s 1
g LO_middle1 Cliff_lo_org1
usemtl unwrapChekcerShaderSG
f 1/1/1 2/2/2 3/3/3 4/4/4
f 6/5/5 5/6/6 1/1/1 4/4/4
f 6/5/5 7/7/7 8/8/8 5/6/6
f 7/7/7 9/9/9 10/10/10 8/8/8
f 10/10/10 9/9/9 11/11/11 12/12/12
f 12/12/12 11/11/11 13/13/13 14/14/14
f 14/14/14 13/13/13 15/15/15 16/35/16
f 3/3/3 2/2/2 16/16/16 15/36/15
f 8/8/8 10/10/10 17/17/17 18/18/18
f 18/18/18 19/19/19 5/6/6 8/8/8
f 19/19/19 20/20/20 1/1/1 5/6/6
f 21/21/21 2/2/2 1/1/1 20/20/20
f 22/22/22 16/16/16 2/2/2 21/21/21
f 23/23/23 14/14/14 16/35/16 22/34/22
f 24/24/24 12/12/12 14/14/14 23/23/23
f 10/10/10 12/12/12 24/24/24 17/17/17
f 26/25/25 25/26/26 22/22/22 21/21/21
f 27/27/27 23/23/23 22/34/22 25/33/26
f 24/24/24 23/23/23 27/27/27 28/28/28
f 17/17/17 24/24/24 28/28/28 29/29/29
f 18/18/18 17/17/17 29/29/29 30/30/30
f 19/19/19 18/18/18 30/30/30 31/31/31
f 31/31/31 32/32/32 20/20/20 19/19/19
f 26/25/25 21/21/21 20/20/20 32/32/32
g default
v -15.478638 53.111328 10.603760
v 14.937988 54.087891 14.113892
v 16.745605 54.734375 -10.908447
v -16.563965 52.816406 -13.138550
v -1.099281 53.654297 12.264038
v -0.824532 53.976563 -12.082520
v -1.495697 53.679688 -22.361572
v -17.413452 52.777344 -16.012329
v 19.081665 54.089844 -16.219482
v 15.794434 54.468750 2.222961
v -0.974861 53.939453 0.694290
v -15.984497 52.794922 -0.680405
v 19.747192 55.208984 17.582886
v 24.805664 54.855469 2.147583
v -19.307861 53.398438 16.351440
v -0.176586 53.824219 21.510010
v -24.192139 52.912109 0.258804
v -1.390427 48.412109 -24.017822
v -18.714722 47.410156 -17.396240
v 18.854370 47.615234 -16.315430
v 25.178223 48.191406 1.712799
v 20.854004 48.910156 17.910400
v 0.660892 48.474609 24.017822
v -21.851563 49.257813 18.905884
v -25.178223 48.724609 0.679840
v 16.708740 39.984375 14.330688
v 1.922409 40.177734 21.597412
v 20.980225 40.425781 0.583694
v 16.619507 39.103516 -16.034668
v -1.512680 39.494141 -21.740601
v -17.163574 40.355469 -15.562500
v -22.657227 40.832031 1.095581
v -18.968384 41.410156 17.865723
v 2.681000 26.263672 19.964111
v -16.956177 27.156250 15.527954
v -21.665283 28.244141 1.615997
v -15.261963 27.242188 -13.508667
v -1.433517 27.181641 -18.680176
v 16.546021 27.228516 -15.999512
v 21.631592 27.121094 0.686584
v 13.974365 26.466797 11.813721
vt 0.549253 0.702714
vt 0.504458 0.795746
vt 0.434196 0.752456
vt 0.483225 0.656548
vt 0.379482 0.859399
vt 0.454404 0.899377
vt 0.410352 0.605593
vt 0.356573 0.704707
vt 0.799891 0.299623
vt 0.313221 0.561237
vt 0.296826 0.815149
vt 0.622970 0.321458
vt 0.327882 0.340483
vt 0.465427 0.339824
vt 0.607745 0.566923
vt 0.774432 0.559276
vt 0.462687 0.562750
vt 0.798557 0.253338
vt 0.314093 0.514115
vt 0.619859 0.266918
vt 0.467977 0.283192
vt 0.339126 0.289672
vt 0.785305 0.509278
vt 0.605928 0.524668
vt 0.465946 0.526988
vt 0.786140 0.433291
vt 0.347976 0.204392
vt 0.474260 0.208959
vt 0.623259 0.193399
vt 0.784212 0.178593
vt 0.319458 0.453012
vt 0.467355 0.456960
vt 0.611103 0.457289
vt 0.602517 0.336365
vt 0.775909 0.314648
vt 0.471449 0.350423
vt 0.327663 0.340644
vt 0.765632 0.075558
vt 0.616325 0.092853
vt 0.472226 0.096495
vt 0.359508 0.089066
vt 0.243519 0.068881
vt 0.201672 0.326477
vt 0.178674 0.432163
vt 0.209643 0.180753
vt 0.163894 0.511574
vt 0.176368 0.246536
vt 0.556617 0.836661
vt 0.163894 0.295148
vt 0.297219 0.661432
vt 0.167849 0.558375
vt 0.396267 0.589522
vt 0.520207 0.610712
vt 0.598526 0.701658
vt 0.457034 0.942337
vt 0.344642 0.913531
vt 0.255654 0.808869
vn -0.024029 0.999483 -0.021360
vn -0.039844 0.999133 -0.012105
vn -0.049826 0.998706 0.010156
vn -0.043298 0.999053 -0.004354
vn -0.039704 0.999194 0.005919
vn -0.059155 0.997945 -0.024614
vn -0.048730 0.998803 -0.004358
vn -0.048658 0.998726 -0.013403
vn -0.007875 0.741579 -0.670819
vn -0.493455 0.719991 -0.487971
vn -0.016574 0.999634 -0.021392
vn 0.523672 0.659888 -0.538809
vn 0.444733 0.703989 0.553726
vn 0.780865 0.623912 -0.031369
vn -0.361627 0.832741 0.419248
vn -0.020093 0.815596 0.578273
vn -0.646915 0.757196 -0.090312
vn 0.026844 -0.042536 -0.998734
vn -0.706173 -0.080110 -0.703492
vn 0.707637 -0.128663 -0.694763
vn 0.975367 -0.219776 -0.018942
vn 0.685365 -0.166306 0.708955
vn 0.035537 -0.045496 0.998332
vn -0.677827 -0.026089 0.734759
vn -0.995786 -0.065782 -0.063902
vn 0.083634 -0.237025 0.967897
vn 0.681214 -0.298438 0.668492
vn 0.973931 -0.226395 0.014305
vn 0.666020 -0.157047 -0.729214
vn -0.023127 -0.199262 -0.979673
vn -0.706345 -0.240509 -0.665757
vn -0.975396 -0.215173 -0.048002
vn -0.597245 -0.241975 0.764687
vn -0.592371 -0.166527 0.788267
vn 0.117506 -0.171111 0.978220
vn -0.989659 -0.138135 -0.038655
vn -0.709271 -0.190521 -0.678702
vn -0.058810 -0.173373 -0.983099
vn 0.681817 -0.061502 -0.728933
vn 0.997356 -0.042651 0.058835
vn 0.714034 -0.144990 0.684933
s 1
g Cliff_lo_org1 LO_top
usemtl unwrapChekcerShaderSG
f 33/37/33 37/38/34 43/39/35 44/40/36
f 42/41/37 43/39/35 37/38/34 34/42/38
f 36/43/39 38/44/40 39/86/41 40/88/42
f 38/44/40 35/47/43 41/93/44 39/86/41
f 38/44/40 43/39/35 42/41/37 35/47/43
f 44/40/36 43/39/35 38/44/40 36/43/39
f 42/41/37 34/42/38 45/91/45 46/92/46
f 35/47/43 42/41/37 46/92/46 41/93/44
f 37/38/34 33/37/33 47/90/47 48/84/48
f 48/84/48 45/91/45 34/42/38 37/38/34
f 33/37/33 44/40/36 49/89/49 47/90/47
f 44/40/36 36/43/39 40/88/42 49/89/49
f 40/46/42 39/87/41 50/82/50 51/55/51
f 39/45/41 41/48/44 52/56/52 50/54/50
f 41/48/44 46/50/46 53/57/53 52/56/52
f 54/58/54 53/57/53 46/50/46 45/49/45
f 55/83/55 54/58/54 45/49/45 48/85/48
f 48/52/48 47/51/47 56/60/56 55/59/55
f 47/51/47 49/53/49 57/61/57 56/60/56
f 51/55/51 57/61/57 49/53/49 40/46/42
f 59/81/58 58/63/59 54/58/54 55/83/55
f 58/63/59 60/64/60 53/57/53 54/58/54
f 60/64/60 61/65/61 52/56/52 53/57/53
f 61/65/61 62/66/62 50/54/50 52/56/52
f 62/80/62 63/67/63 51/55/51 50/82/50
f 57/61/57 51/55/51 63/67/63 64/68/64
f 64/68/64 65/69/65 56/60/56 57/61/57
f 67/70/66 66/71/67 59/62/58 65/69/65
f 65/69/65 64/68/64 68/72/68 67/70/66
f 64/68/64 63/67/63 69/73/69 68/72/68
f 63/67/63 62/80/62 70/79/70 69/73/69
f 62/66/62 61/65/61 71/75/71 70/74/70
f 61/65/61 60/64/60 72/76/72 71/75/71
f 58/63/59 73/77/73 72/76/72 60/64/60
f 73/77/73 58/63/59 59/81/58 66/78/67
f 55/59/55 56/60/56 65/69/65 59/62/58
g default
v -6.230469 -30.542969 -19.291870
v -13.377563 -30.703125 -11.139954
v -12.519409 -17.175781 -11.443726
v -5.989624 -17.175781 -19.463745
v -17.688965 -17.175781 -0.044952
v -16.935303 -31.169922 0.251755
v 13.368164 -17.175781 -17.502563
v 13.255737 -30.619141 -18.008789
v 15.745850 -29.779297 -8.746460
v 16.575684 -17.175781 -7.278198
v 16.394653 -17.175781 10.141724
v 15.375366 -30.681641 8.649658
v 0.651718 -17.175781 15.473877
v 0.271267 -30.707031 14.302734
v -15.584961 -17.175781 13.406982
v -13.764038 -31.042969 11.555176
v -6.843384 -43.902344 -17.940552
v 14.100342 -43.251953 -19.729248
v -13.622192 -43.951172 -11.089966
v -16.489380 -43.007813 -0.277809
v -14.053223 -43.039063 12.446655
v 0.509281 -42.541016 16.915039
v 14.413086 -42.958984 8.578674
v 15.961792 -43.029297 -10.089478
v 14.629883 -55.208984 -9.162659
v 13.896606 -55.208984 7.967224
v 13.356445 -55.208984 -16.332520
v -5.302612 -55.208984 -19.563232
v -12.524048 -55.208984 -10.771179
v -15.816528 -55.208984 -0.446251
v -14.428589 -55.208984 12.359619
v 0.186556 -55.208984 16.183594
vt 0.969979 0.314571
vt 0.017839 0.408155
vt 0.867029 0.415529
vt 0.885301 0.306161
vt 0.767751 0.409320
vt 0.783323 0.295869
vt 0.176859 0.289243
vt 0.180980 0.399465
vt 0.266258 0.282895
vt 0.261291 0.386647
vt 0.409360 0.274549
vt 0.407173 0.387231
vt 0.544807 0.282092
vt 0.544420 0.392948
vt 0.675685 0.281982
vt 0.667504 0.400543
vt 0.183582 0.500700
vt 0.018587 0.522910
vt 0.856246 0.522554
vt 0.765743 0.506386
vt 0.661283 0.501224
vt 0.539800 0.493160
vt 0.410042 0.488736
vt 0.258940 0.495158
vt 0.406338 0.590554
vt 0.265692 0.595703
vt 0.203673 0.597507
vt 0.045282 0.617552
vt 0.850505 0.614906
vt 0.762104 0.607430
vt 0.658348 0.602127
vt 0.536047 0.596823
vt 0.943534 0.624857
vt 0.934890 0.530521
vt 0.956271 0.423110
vt 0.015087 0.297954
vn -0.234247 0.015854 -0.972048
vn -0.253542 0.011048 -0.967261
vn -0.871500 -0.000165 -0.490395
vn -0.865070 0.007273 -0.501598
vn -0.998545 -0.032191 -0.043267
vn -0.995770 -0.056157 -0.072729
vn 0.454588 0.003357 -0.890695
vn 0.412127 0.022132 -0.910858
vn 0.995038 -0.053370 -0.083969
vn 0.997027 -0.025523 -0.072698
vn 0.804221 -0.110694 0.583931
vn 0.846056 -0.046283 0.531081
vn 0.101750 -0.116357 0.987982
vn 0.105937 -0.009994 0.994323
vn -0.637644 -0.132361 0.758874
vn -0.661230 -0.031843 0.749507
vn 0.367086 -0.027573 -0.929778
vn -0.294995 -0.030486 -0.955012
vn -0.877210 -0.034636 -0.478857
vn -0.999084 -0.021068 -0.037250
vn -0.686366 0.030728 0.726607
vn 0.132936 0.033489 0.990559
vn 0.857961 -0.026891 0.513011
vn 0.998493 -0.039239 -0.038358
vn 0.865968 -0.078154 0.493955
vn 0.996088 -0.087742 -0.010502
vn 0.445103 -0.110257 -0.888666
vn -0.210250 -0.072638 -0.974945
vn -0.876519 -0.063303 -0.477187
vn -0.998007 -0.042260 -0.046873
vn -0.717321 -0.022840 0.696369
vn 0.140151 -0.048108 0.988961
s 1
g Cliff_lo_org1 LO_middle2
usemtl unwrapChekcerShaderSG
f 77/94/74 74/128/75 75/96/76 76/97/77
f 79/98/78 78/99/79 76/97/77 75/96/76
f 77/129/74 80/100/80 81/101/81 74/95/75
f 83/102/82 82/103/83 81/101/81 80/100/80
f 83/102/82 84/104/84 85/105/85 82/103/83
f 84/104/84 86/106/86 87/107/87 85/105/85
f 86/106/86 88/108/88 89/109/89 87/107/87
f 88/108/88 78/99/79 79/98/78 89/109/89
f 91/110/90 90/111/91 74/95/75 81/101/81
f 74/128/75 90/127/91 92/112/92 75/96/76
f 93/113/93 79/98/78 75/96/76 92/112/92
f 93/113/93 94/114/94 89/109/89 79/98/78
f 94/114/94 95/115/95 87/107/87 89/109/89
f 95/115/95 96/116/96 85/105/85 87/107/87
f 82/103/83 85/105/85 96/116/96 97/117/97
f 91/110/90 81/101/81 82/103/83 97/117/97
f 99/118/98 98/119/99 97/117/97 96/116/96
f 97/117/97 98/119/99 100/120/100 91/110/90
f 100/120/100 101/121/101 90/111/91 91/110/90
f 102/122/102 92/112/92 90/127/91 101/126/101
f 103/123/103 93/113/93 92/112/92 102/122/102
f 94/114/94 93/113/93 103/123/103 104/124/104
f 104/124/104 105/125/105 95/115/95 94/114/94
f 105/125/105 99/118/98 96/116/96 95/115/95
