# This file uses centimeters as units for non-parametric coordinates.

mtllib Cliff3.mtl
g default
v 28.280182 -12.491455 -4.972551
v 18.690887 -15.099121 -18.036804
v 20.682495 10.265381 -19.999344
v 27.039368 10.131592 0.858223
v 19.483871 -13.701660 13.059387
v 17.465118 9.304199 14.764908
v 3.351252 9.059326 24.955048
v 0.487068 -15.156250 20.793320
v -21.195236 10.173828 19.410004
v -21.436935 -15.693359 17.605316
v -27.081680 11.533447 2.020008
v -20.762985 -14.577637 -0.192637
v -19.077423 10.281250 -16.885834
v -18.199814 -13.109131 -17.233582
v -1.791903 10.206055 -23.350189
v -4.928444 -14.905762 -18.675797
v -24.365021 -27.426025 18.431564
v 0.404717 -29.443604 16.989670
v 19.274719 -29.856689 11.845909
v 23.565781 -29.479248 -6.605911
v 16.848099 -30.952148 -18.051056
v -5.989506 -30.200439 -18.645355
v -17.388718 -30.578857 -16.404510
v -21.232239 -30.473877 -0.286702
v 16.710159 -45.239502 -21.878159
v -7.487038 -45.239502 -24.329605
v -15.649200 -45.239502 -14.304626
v -22.111176 -45.239502 -0.056194
v -19.481140 -45.239502 16.758667
v 0.814647 -45.239502 19.342407
v 20.493301 -45.239502 12.677216
v 20.719574 -45.239502 -9.097778
vt 0.744289 0.546212
vt 0.836316 0.515470
vt 0.855259 0.672318
vt 0.723123 0.684869
vt 0.621675 0.687690
vt 0.624635 0.545317
vt 0.517532 0.696607
vt 0.499626 0.547072
vt 0.365068 0.700335
vt 0.362302 0.542529
vt 0.253370 0.710720
vt 0.249653 0.546007
vt 0.130167 0.686370
vt 0.142914 0.545010
vt 0.018232 0.672407
vt 0.063626 0.522008
vt 0.977128 0.492712
vt 0.989306 0.648140
vt 0.358063 0.473027
vt 0.501992 0.456382
vt 0.623810 0.446069
vt 0.743976 0.440034
vt 0.826595 0.415742
vt 0.968683 0.402528
vt 0.154102 0.440344
vt 0.084797 0.429540
vt 0.252479 0.446089
vt 0.823034 0.321879
vt 0.969629 0.304664
vt 0.167245 0.345042
vt 0.089440 0.330418
vt 0.263831 0.344259
vt 0.369012 0.359912
vt 0.494790 0.360055
vt 0.618168 0.350223
vt 0.748625 0.344539
vn 0.997791 -0.058200 -0.032039
vn 0.460034 -0.081309 -0.884170
vn 0.507378 -0.080320 -0.857972
vn 0.995504 -0.002387 0.094686
vn 0.683137 -0.075112 0.726417
vn 0.703757 -0.114745 0.701114
vn 0.118706 -0.116935 0.986020
vn 0.101719 -0.123229 0.987152
vn -0.659079 -0.139478 0.739027
vn -0.665393 -0.097428 0.740108
vn -0.989925 -0.127513 -0.061560
vn -0.992300 -0.063221 -0.106503
vn -0.744148 -0.117105 -0.657670
vn -0.736253 -0.086459 -0.671160
vn -0.035398 -0.117291 -0.992467
vn -0.048799 -0.073661 -0.996089
vn -0.692949 -0.030746 0.720331
vn 0.134371 -0.031259 0.990438
vn 0.742778 -0.075895 0.665222
vn 0.991162 -0.111719 -0.071532
vn 0.415451 0.076474 -0.906395
vn -0.079681 0.115967 -0.990052
vn -0.792747 -0.006094 -0.609521
vn -0.988550 -0.026452 -0.148559
vn 0.374537 0.239382 -0.895778
vn -0.123026 0.251879 -0.959907
vn -0.825499 0.008224 -0.564344
vn -0.984998 -0.092723 -0.145536
vn -0.576603 -0.054958 0.815174
vn 0.122865 0.061332 0.990526
vn 0.771021 0.032602 0.635974
vn 0.992284 -0.036263 -0.118566
s 1
g LO_middle1 LO_middle1 Cliff_lo_org1
usemtl unwrapChekcerShaderSG
f 1/1/1 2/2/2 3/3/3 4/4/4
f 6/5/5 5/6/6 1/1/1 4/4/4
f 6/5/5 7/7/7 8/8/8 5/6/6
f 7/7/7 9/9/9 10/10/10 8/8/8
f 10/10/10 9/9/9 11/11/11 12/12/12
f 12/12/12 11/11/11 13/13/13 14/14/14
f 14/14/14 13/13/13 15/15/15 16/16/16
f 3/3/3 2/2/2 16/17/16 15/18/15
f 8/8/8 10/10/10 17/19/17 18/20/18
f 18/20/18 19/21/19 5/6/6 8/8/8
f 19/21/19 20/22/20 1/1/1 5/6/6
f 21/23/21 2/2/2 1/1/1 20/22/20
f 22/24/22 16/17/16 2/2/2 21/23/21
f 23/25/23 14/14/14 16/16/16 22/26/22
f 24/27/24 12/12/12 14/14/14 23/25/23
f 10/10/10 12/12/12 24/27/24 17/19/17
f 25/28/25 26/29/26 22/24/22 21/23/21
f 27/30/27 23/25/23 22/26/22 26/31/26
f 24/27/24 23/25/23 27/30/27 28/32/28
f 17/19/17 24/27/24 28/32/28 29/33/29
f 18/20/18 17/19/17 29/33/29 30/34/30
f 19/21/19 18/20/18 30/34/30 31/35/31
f 31/35/31 32/36/32 20/22/20 19/21/19
f 25/28/25 21/23/21 20/22/20 32/36/32
g default
v -19.348328 42.618164 13.254715
v 18.672546 43.840088 17.642319
v 20.931961 44.646973 -13.635521
v -20.704926 42.249756 -16.423233
v -1.374097 43.297363 15.330078
v -1.030661 43.699219 -15.103134
v -1.869614 43.327637 -27.951996
v -21.766861 42.201416 -20.015442
v 23.852112 43.841797 -20.274399
v 19.743027 44.314453 2.778687
v -1.218573 43.654297 0.867855
v -19.980682 42.221924 -0.850506
v 24.683914 45.239502 21.978653
v 31.007080 44.798096 2.684494
v -24.134781 42.976807 20.439285
v -0.220732 43.509521 26.887604
v -30.240265 42.368652 0.323502
v -1.738033 36.744629 -30.022247
v -23.393433 35.490723 -21.745285
v 23.567902 35.748047 -20.394241
v 31.472839 36.468994 2.141006
v 26.067383 37.366211 22.387939
v 0.826118 36.822266 30.022247
v -27.314529 37.800537 23.632416
v -31.472839 37.134766 0.849806
v 20.885956 26.208740 17.913406
v 2.403021 26.450195 26.996674
v 26.225281 26.760986 0.729628
v 20.774368 25.108398 -20.043381
v -1.890842 25.596436 -27.175751
v -21.454514 26.674805 -19.453186
v -28.321548 27.269287 1.369486
v -23.710526 27.991455 22.332214
v 3.351254 9.059326 24.955048
v -21.195236 10.173828 19.410004
v -27.081680 11.533447 2.020008
v -19.077423 10.281250 -16.885834
v -1.791901 10.206055 -23.350189
v 20.682495 10.265381 -19.999344
v 27.039368 10.131592 0.858232
v 17.468033 9.312256 14.767151
vt 0.549253 0.702714
vt 0.504458 0.795746
vt 0.434196 0.752456
vt 0.483225 0.656548
vt 0.379482 0.859399
vt 0.454404 0.899377
vt 0.410352 0.605593
vt 0.356573 0.704707
vt 0.799891 0.299623
vt 0.313221 0.561237
vt 0.296826 0.815149
vt 0.622970 0.321458
vt 0.327882 0.340483
vt 0.465427 0.339824
vt 0.607745 0.566923
vt 0.774432 0.559276
vt 0.462687 0.562750
vt 0.798557 0.253338
vt 0.314093 0.514115
vt 0.619859 0.266918
vt 0.467977 0.283192
vt 0.339126 0.289672
vt 0.785305 0.509278
vt 0.605928 0.524668
vt 0.465946 0.526988
vt 0.786140 0.433291
vt 0.347976 0.204392
vt 0.474260 0.208959
vt 0.623259 0.193399
vt 0.784212 0.178593
vt 0.319458 0.453012
vt 0.467355 0.456960
vt 0.611103 0.457289
vt 0.602517 0.336365
vt 0.775909 0.314648
vt 0.471449 0.350423
vt 0.327663 0.340644
vt 0.765632 0.075558
vt 0.616325 0.092853
vt 0.472226 0.096495
vt 0.359508 0.089066
vt 0.243519 0.068881
vt 0.201672 0.326477
vt 0.178674 0.432163
vt 0.209643 0.180753
vt 0.163894 0.511574
vt 0.176368 0.246536
vt 0.556617 0.836661
vt 0.163894 0.295148
vt 0.297219 0.661432
vt 0.167849 0.558375
vt 0.396267 0.589522
vt 0.520207 0.610712
vt 0.598526 0.701658
vt 0.457034 0.942337
vt 0.344642 0.913531
vt 0.255654 0.808869
vn -0.024064 0.999482 -0.021363
vn -0.039856 0.999132 -0.012093
vn -0.049832 0.998706 0.010133
vn -0.043321 0.999052 -0.004357
vn -0.039676 0.999195 0.005899
vn -0.059117 0.997948 -0.024583
vn -0.048708 0.998804 -0.004346
vn -0.048658 0.998725 -0.013419
vn -0.007886 0.741574 -0.670825
vn -0.493447 0.719996 -0.487971
vn -0.016587 0.999634 -0.021394
vn 0.523645 0.659924 -0.538792
vn 0.444739 0.703969 0.553746
vn 0.780859 0.623919 -0.031367
vn -0.361637 0.832728 0.419265
vn -0.020102 0.815570 0.578309
vn -0.646939 0.757174 -0.090322
vn 0.026850 -0.042534 -0.998734
vn -0.706170 -0.080118 -0.703495
vn 0.707641 -0.128668 -0.694758
vn 0.975368 -0.219767 -0.018948
vn 0.685363 -0.166315 0.708954
vn 0.035539 -0.045493 0.998332
vn -0.677817 -0.026094 0.734768
vn -0.995786 -0.065777 -0.063901
vn 0.083632 -0.237025 0.967897
vn 0.681217 -0.298438 0.668489
vn 0.973930 -0.226398 0.014297
vn 0.666015 -0.157051 -0.729218
vn -0.023127 -0.199261 -0.979674
vn -0.706344 -0.240514 -0.665756
vn -0.975395 -0.215173 -0.048006
vn -0.597248 -0.241978 0.764684
vn -0.592394 -0.166529 0.788250
vn 0.117503 -0.171119 0.978218
vn -0.989659 -0.138127 -0.038667
vn -0.709281 -0.190509 -0.678695
vn -0.058829 -0.173376 -0.983097
vn 0.681803 -0.061512 -0.728945
vn 0.997356 -0.042659 0.058840
vn 0.714032 -0.145001 0.684933
s 1
g Cliff_lo_org1 LO_top
usemtl unwrapChekcerShaderSG
f 33/37/33 37/38/34 43/39/35 44/40/36
f 42/41/37 43/39/35 37/38/34 34/42/38
f 36/43/39 38/44/40 39/86/41 40/88/42
f 38/44/40 35/47/43 41/93/44 39/86/41
f 38/44/40 43/39/35 42/41/37 35/47/43
f 44/40/36 43/39/35 38/44/40 36/43/39
f 42/41/37 34/42/38 45/91/45 46/92/46
f 35/47/43 42/41/37 46/92/46 41/93/44
f 37/38/34 33/37/33 47/90/47 48/84/48
f 48/84/48 45/91/45 34/42/38 37/38/34
f 33/37/33 44/40/36 49/89/49 47/90/47
f 44/40/36 36/43/39 40/88/42 49/89/49
f 40/46/42 39/87/41 50/82/50 51/55/51
f 39/45/41 41/48/44 52/56/52 50/54/50
f 41/48/44 46/50/46 53/57/53 52/56/52
f 54/58/54 53/57/53 46/50/46 45/49/45
f 55/83/55 54/58/54 45/49/45 48/85/48
f 48/52/48 47/51/47 56/60/56 55/59/55
f 47/51/47 49/53/49 57/61/57 56/60/56
f 51/55/51 57/61/57 49/53/49 40/46/42
f 59/81/58 58/63/59 54/58/54 55/83/55
f 58/63/59 60/64/60 53/57/53 54/58/54
f 60/64/60 61/65/61 52/56/52 53/57/53
f 61/65/61 62/66/62 50/54/50 52/56/52
f 62/80/62 63/67/63 51/55/51 50/82/50
f 57/61/57 51/55/51 63/67/63 64/68/64
f 64/68/64 65/69/65 56/60/56 57/61/57
f 67/70/66 66/71/67 59/62/58 65/69/65
f 65/69/65 64/68/64 68/72/68 67/70/66
f 64/68/64 63/67/63 69/73/69 68/72/68
f 63/67/63 62/80/62 70/79/70 69/73/69
f 62/66/62 61/65/61 71/75/71 70/74/70
f 61/65/61 60/64/60 72/76/72 71/75/71
f 58/63/59 73/77/73 72/76/72 60/64/60
f 73/77/73 58/63/59 59/81/58 66/78/67
f 55/59/55 56/60/56 65/69/65 59/62/58
g default
v -7.788101 -61.948242 -24.114792
v -16.721893 -62.150391 -13.924911
v -15.649200 -45.239502 -14.304626
v -7.487038 -45.239502 -24.329605
v -22.111176 -45.239502 -0.056194
v -21.169174 -62.733154 0.314692
v 16.710159 -45.239502 -21.878159
v 16.569702 -62.045654 -22.511047
v 19.682358 -60.994629 -10.933067
v 20.719604 -45.239502 -9.097778
v 20.493301 -45.239502 12.677216
v 19.219208 -62.122070 10.812111
v 0.814647 -45.239502 19.342407
v 0.339084 -62.153809 17.878403
v -19.481140 -45.239502 16.758743
v -17.205109 -62.574463 14.444000
v -8.554222 -78.648438 -22.425674
v 17.625366 -77.834961 -24.661545
v -17.027664 -78.710693 -13.862480
v -20.611649 -77.529541 -0.347261
v -17.566467 -77.570068 15.558273
v 0.636602 -76.947998 21.143829
v 18.016312 -77.469727 10.723381
v 19.952209 -77.557129 -12.611885
v 17.370773 -92.781250 9.959015
v 18.287338 -92.781250 -11.453316
v 16.695526 -92.781250 -20.415649
v -6.628265 -92.781250 -24.453995
v -15.655136 -92.781250 -13.464005
v -19.770737 -92.781250 -0.557816
v -18.035751 -92.781250 15.449509
v 0.233195 -92.781250 20.229431
vt 0.969979 0.314571
vt 0.956271 0.423110
vt 0.867029 0.415529
vt 0.885301 0.306161
vt 0.767751 0.409320
vt 0.783323 0.295869
vt 0.015087 0.297954
vt 0.176859 0.289243
vt 0.180980 0.399465
vt 0.017839 0.408155
vt 0.266258 0.282895
vt 0.261291 0.386647
vt 0.409360 0.274549
vt 0.407173 0.387231
vt 0.544807 0.282092
vt 0.544420 0.392948
vt 0.675685 0.281982
vt 0.667504 0.400543
vt 0.183582 0.500700
vt 0.018587 0.522910
vt 0.934890 0.530521
vt 0.856246 0.522554
vt 0.765743 0.506386
vt 0.661283 0.501224
vt 0.539800 0.493160
vt 0.410042 0.488736
vt 0.258940 0.495158
vt 0.406338 0.590554
vt 0.265692 0.595703
vt 0.203673 0.597507
vt 0.045282 0.617552
vt 0.850505 0.614906
vt 0.943534 0.624857
vt 0.762104 0.607430
vt 0.658348 0.602127
vt 0.536047 0.596823
vn -0.234246 0.015857 -0.972048
vn -0.253546 0.011049 -0.967260
vn -0.871499 -0.000166 -0.490397
vn -0.865072 0.007274 -0.501595
vn -0.998545 -0.032191 -0.043273
vn -0.995770 -0.056150 -0.072734
vn 0.454593 0.003362 -0.890693
vn 0.412123 0.022134 -0.910859
vn 0.995038 -0.053365 -0.083972
vn 0.997027 -0.025524 -0.072698
vn 0.804223 -0.110692 0.583928
vn 0.846054 -0.046283 0.531085
vn 0.101748 -0.116356 0.987982
vn 0.105937 -0.009996 0.994323
vn -0.637648 -0.132353 0.758873
vn -0.661226 -0.031841 0.749511
vn 0.367079 -0.027574 -0.929781
vn -0.294994 -0.030486 -0.955013
vn -0.877208 -0.034637 -0.478859
vn -0.999084 -0.021066 -0.037248
vn -0.686364 0.030729 0.726609
vn 0.132936 0.033486 0.990559
vn 0.857958 -0.026892 0.513015
vn 0.998493 -0.039242 -0.038358
vn 0.865974 -0.078159 0.493944
vn 0.996088 -0.087743 -0.010505
vn 0.445101 -0.110259 -0.888667
vn -0.210238 -0.072640 -0.974948
vn -0.876521 -0.063300 -0.477184
vn -0.998007 -0.042253 -0.046868
vn -0.717336 -0.022839 0.696353
vn 0.140152 -0.048115 0.988960
s 1
g Cliff_lo_org1 LO_middle2 LO_middle2
usemtl unwrapChekcerShaderSG
f 77/94/74 74/95/75 75/96/76 76/97/77
f 79/98/78 78/99/79 76/97/77 75/96/76
f 77/100/74 80/101/80 81/102/81 74/103/75
f 83/104/82 82/105/83 81/102/81 80/101/80
f 83/104/82 84/106/84 85/107/85 82/105/83
f 84/106/84 86/108/86 87/109/87 85/107/85
f 86/108/86 88/110/88 89/111/89 87/109/87
f 88/110/88 78/99/79 79/98/78 89/111/89
f 91/112/90 90/113/91 74/103/75 81/102/81
f 74/95/75 90/114/91 92/115/92 75/96/76
f 93/116/93 79/98/78 75/96/76 92/115/92
f 93/116/93 94/117/94 89/111/89 79/98/78
f 94/117/94 95/118/95 87/109/87 89/111/89
f 95/118/95 96/119/96 85/107/85 87/109/87
f 82/105/83 85/107/85 96/119/96 97/120/97
f 91/112/90 81/102/81 82/105/83 97/120/97
f 98/121/98 99/122/99 97/120/97 96/119/96
f 97/120/97 99/122/99 100/123/100 91/112/90
f 100/123/100 101/124/101 90/113/91 91/112/90
f 102/125/102 92/115/92 90/114/91 101/126/101
f 103/127/103 93/116/93 92/115/92 102/125/102
f 94/117/94 93/116/93 103/127/103 104/128/104
f 104/128/104 105/129/105 95/118/95 94/117/94
f 105/129/105 98/121/98 96/119/96 95/118/95
g default
v 18.287338 -92.781250 -11.453316
v 17.370773 -92.781250 9.959015
v 16.695526 -92.781250 -20.415649
v -6.628265 -92.781250 -24.453995
v -15.655136 -92.781250 -13.464005
v -19.770737 -92.781250 -0.557816
v -18.035751 -92.781250 15.449509
v 0.233195 -92.781250 20.229431
v 16.023407 -108.865356 -22.369431
v -7.511757 -107.924927 -24.403214
v -16.298294 -108.949341 -12.846664
v -19.082642 -108.583496 -0.065562
v -19.426926 -109.246704 14.383408
v 0.619813 -108.688354 18.706406
v 16.042114 -108.937866 7.691025
v 16.814575 -107.672607 -12.431793
v -8.186821 -124.256226 -21.088654
v 16.522125 -125.681030 -20.051025
v -18.182251 -124.664063 -13.846207
v -23.057388 -123.971191 -0.501821
v -20.733078 -125.072266 15.017426
v 0.471180 -123.927856 18.988708
v 18.806961 -124.347778 7.955162
v 19.650650 -123.886108 -12.361656
v 16.587006 -149.977051 -17.211655
v -7.249367 -148.723633 -24.524292
v -17.470428 -148.281006 -17.969879
v -23.366592 -147.884033 1.096855
v -20.481216 -149.765625 14.545425
v 0.713296 -147.808105 20.514755
v 18.674622 -149.136108 10.878853
v 20.624008 -148.562012 -10.648705
v -7.307083 -171.811035 -23.567657
v 17.066162 -171.811035 -18.079407
v -19.326248 -171.811035 -18.827820
v -22.920029 -171.811035 -0.483418
v -21.884247 -171.811035 15.923111
v 2.167526 -171.811035 18.881989
v 17.326569 -171.811035 8.595428
v 20.290604 -171.811035 -9.976677
vt 0.941413 0.000000
vt 0.167991 0.033738
vt 0.161218 0.143029
vt 0.000000 0.140957
vt 0.848433 0.121503
vt 0.844336 0.009930
vt 0.756288 0.125341
vt 0.751861 0.016804
vt 0.654362 0.135975
vt 0.641579 0.023937
vt 0.508856 0.133602
vt 0.512427 0.022849
vt 0.372789 0.137988
vt 0.376347 0.024820
vt 0.230904 0.031387
vt 0.229447 0.133259
vt 0.171749 0.257194
vt 0.001244 0.255816
vt 0.859806 0.230779
vt 0.764058 0.232885
vt 0.659764 0.245117
vt 0.513146 0.238185
vt 0.367051 0.246965
vt 0.229192 0.245179
vt 0.014403 0.424321
vt 0.185997 0.425533
vt 0.899735 0.390892
vt 0.762850 0.397343
vt 0.669004 0.415658
vt 0.519199 0.403308
vt 0.384195 0.414271
vt 0.238399 0.414518
vt 0.191177 0.576668
vt 0.020981 0.581760
vt 0.912251 0.552741
vt 0.784435 0.560208
vt 0.672818 0.569126
vt 0.507468 0.568097
vt 0.379933 0.568801
vt 0.250538 0.573564
vt 1.000000 0.540717
vt 0.982761 0.383018
vt 0.942642 0.217188
vt 0.947553 0.103612
vt 0.004095 0.036356
vn -0.230766 0.049326 -0.971758
vn 0.480042 0.023843 -0.876922
vn 0.375092 -0.051160 -0.925575
vn -0.230696 -0.038349 -0.972270
vn -0.875430 0.055474 -0.480150
vn -0.888195 0.008593 -0.459387
vn -0.991101 0.092010 -0.096196
vn -0.995047 0.006247 -0.099207
vn -0.693051 0.043432 0.719579
vn -0.675745 -0.041127 0.735987
vn 0.179134 -0.024902 0.983509
vn 0.157305 -0.099753 0.982499
vn 0.874758 0.011137 0.484432
vn 0.857346 -0.117247 0.501210
vn 0.996489 -0.083256 -0.008811
vn 0.999221 0.028183 -0.027635
vn 0.377977 -0.039126 -0.924988
vn -0.158494 -0.017715 -0.987201
vn -0.848949 0.068481 -0.524020
vn -0.992317 0.074270 -0.098947
vn -0.644996 0.051181 0.762470
vn 0.152090 0.053128 0.986938
vn 0.869254 0.085721 0.486878
vn 0.995696 0.068682 -0.062235
vn -0.024758 0.027482 -0.999316
vn 0.420677 0.004115 -0.907201
vn -0.824511 0.047079 -0.563884
vn -0.996896 0.019794 -0.076197
vn -0.626514 0.010497 0.779340
vn 0.131085 0.011113 0.991309
vn 0.834265 0.000370 0.551363
vn 0.998312 -0.007040 -0.057649
vn 0.442692 0.001668 -0.896672
vn 0.013939 0.006436 -0.999882
vn -0.842065 0.034890 -0.538246
vn -0.995115 0.033226 -0.092964
vn -0.618039 0.005452 0.786128
vn 0.156768 -0.039593 0.986842
vn 0.848577 -0.061140 0.525528
vn 0.998892 -0.028940 -0.037106
s 1
g Cliff_lo_org1 LO_middle2 LO_middle3
usemtl unwrapChekcerShaderSG
f 109/174/106 108/131/107 114/132/108 115/133/109
f 116/134/110 110/135/111 109/130/106 115/173/109
f 117/136/112 111/137/113 110/135/111 116/134/110
f 118/138/114 112/139/115 111/137/113 117/136/112
f 118/138/114 119/140/116 113/141/117 112/139/115
f 119/140/116 120/142/118 107/143/119 113/141/117
f 106/144/120 107/143/119 120/142/118 121/145/121
f 114/132/108 108/131/107 106/144/120 121/145/121
f 123/146/122 122/147/123 115/133/109 114/132/108
f 115/173/109 122/172/123 124/148/124 116/134/110
f 125/149/125 117/136/112 116/134/110 124/148/124
f 126/150/126 118/138/114 117/136/112 125/149/125
f 119/140/116 118/138/114 126/150/126 127/151/127
f 127/151/127 128/152/128 120/142/118 119/140/116
f 128/152/128 129/153/129 121/145/121 120/142/118
f 123/146/122 114/132/108 121/145/121 129/153/129
f 131/154/130 122/147/123 123/146/122 130/155/131
f 122/172/123 131/171/130 132/156/132 124/148/124
f 133/157/133 125/149/125 124/148/124 132/156/132
f 134/158/134 126/150/126 125/149/125 133/157/133
f 135/159/135 127/151/127 126/150/126 134/158/134
f 136/160/136 128/152/128 127/151/127 135/159/135
f 137/161/137 129/153/129 128/152/128 136/160/136
f 130/155/131 123/146/122 129/153/129 137/161/137
f 139/162/138 138/163/139 131/154/130 130/155/131
f 131/171/130 138/170/139 140/164/140 132/156/132
f 141/165/141 133/157/133 132/156/132 140/164/140
f 133/157/133 141/165/141 142/166/142 134/158/134
f 142/166/142 143/167/143 135/159/135 134/158/134
f 144/168/144 136/160/136 135/159/135 143/167/143
f 145/169/145 137/161/137 136/160/136 144/168/144
f 139/162/138 130/155/131 137/161/137 145/169/145
